<svg aria-hidden="true" style="position: absolute; width: 0; height: 0; overflow: hidden;" version="1.1" xmlns="http://www.w3.org/2000/svg" xmlns:xlink="http://www.w3.org/1999/xlink">
<defs>
<symbol id="icon-alarm" viewBox="0 0 32 32">
<title>alarm</title>
<path d="M15.832 30.261c-7.31 0-13.257-5.947-13.257-13.256s5.947-13.256 13.257-13.256c7.309 0 13.256 5.947 13.256 13.256s-5.947 13.256-13.256 13.256zM15.832 5.526c-6.329 0-11.479 5.149-11.479 11.479s5.15 11.478 11.479 11.478 11.479-5.149 11.479-11.478c0-6.329-5.149-11.479-11.479-11.479zM11.127 25.765c-0.074 0-0.15-0.018-0.219-0.057-3.13-1.775-5.074-5.11-5.074-8.703 0-0.246 0.199-0.444 0.444-0.444s0.444 0.199 0.444 0.444c0 3.273 1.772 6.312 4.623 7.93 0.213 0.12 0.288 0.392 0.168 0.606-0.082 0.144-0.232 0.225-0.387 0.225zM14.961 26.963c-0.013 0-0.027-0.001-0.040-0.002-0.192-0.017-0.382-0.040-0.571-0.068-0.243-0.036-0.41-0.262-0.374-0.505s0.262-0.407 0.505-0.374c0.172 0.026 0.344 0.047 0.52 0.063 0.244 0.022 0.424 0.238 0.403 0.483-0.021 0.231-0.215 0.404-0.442 0.404zM4.954 11.023c-0.164 0-0.33-0.045-0.479-0.14-1.476-0.946-2.358-2.557-2.358-4.309 0-2.821 2.295-5.116 5.116-5.116 2.061 0 3.911 1.226 4.713 3.123 0.192 0.452-0.020 0.974-0.472 1.165-0.454 0.191-0.974-0.020-1.165-0.472-0.524-1.238-1.732-2.038-3.076-2.038-1.841 0-3.338 1.497-3.338 3.338 0 1.144 0.576 2.195 1.54 2.812 0.413 0.265 0.534 0.815 0.269 1.228-0.169 0.265-0.456 0.409-0.749 0.409zM27.046 11.023c-0.293 0-0.58-0.144-0.75-0.409-0.265-0.414-0.144-0.964 0.269-1.228 0.964-0.617 1.54-1.668 1.54-2.812 0-1.84-1.497-3.338-3.338-3.338-1.344 0-2.552 0.8-3.076 2.038-0.191 0.452-0.712 0.664-1.165 0.472s-0.664-0.713-0.472-1.165c0.803-1.897 2.652-3.123 4.713-3.123 2.821 0 5.116 2.295 5.116 5.116 0 1.752-0.881 3.363-2.358 4.309-0.148 0.095-0.314 0.14-0.478 0.14zM6.463 30.542c-0.188 0-0.378-0.060-0.539-0.183-0.39-0.298-0.465-0.856-0.167-1.246l1.947-2.548c0.298-0.391 0.855-0.466 1.246-0.167 0.39 0.298 0.465 0.856 0.167 1.246l-1.947 2.548c-0.175 0.229-0.439 0.35-0.707 0.35zM24.904 30.542c-0.268 0-0.532-0.12-0.707-0.35l-1.947-2.548c-0.298-0.39-0.224-0.948 0.167-1.246 0.39-0.3 0.948-0.224 1.246 0.167l1.947 2.548c0.298 0.39 0.224 0.948-0.167 1.246-0.161 0.123-0.351 0.183-0.539 0.183zM18.355 20.668c-0.229 0-0.458-0.088-0.632-0.264l-2.398-2.56c-0.165-0.166-0.123-0.391-0.123-0.625v-7.028c0-0.491 0.398-0.889 0.889-0.889s0.889 0.398 0.889 0.889v6.663l2.141 2.3c0.344 0.349 0.275 0.912-0.074 1.257-0.173 0.172-0.466 0.257-0.692 0.257z"></path>
</symbol>
<symbol id="icon-ball" viewBox="0 0 32 32">
<title>ball</title>
<path d="M15.996 30.342c-3.831 0-7.432-1.492-10.141-4.2-5.592-5.592-5.592-14.691 0-20.283 2.709-2.708 6.311-4.201 10.142-4.201s7.432 1.492 10.141 4.2c2.709 2.709 4.2 6.311 4.2 10.141s-1.492 7.432-4.2 10.14c-2.709 2.71-6.311 4.202-10.142 4.202zM15.997 3.436c-3.356 0-6.511 1.307-8.884 3.68-4.899 4.9-4.899 12.87-0.001 17.769 2.373 2.372 5.528 3.68 8.884 3.68s6.512-1.307 8.885-3.68c2.373-2.372 3.68-5.528 3.68-8.884s-1.307-6.511-3.68-8.884c-2.373-2.372-5.528-3.68-8.884-3.68zM3.616 14.689c-0.024 0-0.047-0.002-0.071-0.006-0.355-0.057-0.715-0.103-1.072-0.137-0.244-0.023-0.424-0.24-0.401-0.484s0.238-0.435 0.484-0.401c0.377 0.036 0.757 0.084 1.131 0.144 0.242 0.039 0.407 0.268 0.368 0.509-0.036 0.219-0.224 0.375-0.439 0.375zM17.212 26.506c-0.19 0-0.365-0.122-0.424-0.313-0.226-0.733-0.506-1.458-0.832-2.153-0.104-0.223-0.009-0.487 0.213-0.591s0.487-0.009 0.592 0.213c0.343 0.732 0.638 1.496 0.876 2.269 0.072 0.234-0.059 0.483-0.294 0.556-0.044 0.013-0.088 0.020-0.131 0.020zM15.204 22.226c-0.145 0-0.287-0.071-0.372-0.201-0.418-0.64-0.887-1.26-1.394-1.841-0.161-0.185-0.142-0.466 0.043-0.628s0.466-0.141 0.627 0.044c0.534 0.612 1.028 1.265 1.468 1.939 0.134 0.206 0.076 0.481-0.129 0.616-0.075 0.048-0.159 0.072-0.243 0.072zM12.096 18.659c-0.104 0-0.208-0.036-0.292-0.109-0.582-0.506-1.201-0.974-1.842-1.392-0.206-0.134-0.264-0.409-0.13-0.615s0.41-0.263 0.615-0.13c0.675 0.44 1.327 0.933 1.94 1.466 0.185 0.161 0.205 0.442 0.044 0.627-0.088 0.102-0.211 0.153-0.336 0.153zM8.135 16.078c-0.064 0-0.127-0.014-0.188-0.043-0.696-0.325-1.42-0.604-2.154-0.83-0.234-0.072-0.366-0.32-0.294-0.556 0.072-0.233 0.322-0.365 0.555-0.294 0.773 0.238 1.536 0.532 2.269 0.875 0.223 0.104 0.318 0.369 0.214 0.591-0.075 0.161-0.235 0.256-0.402 0.256zM17.892 29.927c-0.227 0-0.42-0.173-0.442-0.403-0.034-0.358-0.080-0.719-0.137-1.073-0.039-0.242 0.126-0.471 0.368-0.509 0.241-0.042 0.471 0.126 0.509 0.368 0.060 0.373 0.108 0.753 0.144 1.13 0.023 0.245-0.156 0.462-0.4 0.484-0.014 0.001-0.028 0.002-0.042 0.002zM14.003 4.301c-0.214 0-0.403-0.156-0.438-0.374-0.060-0.373-0.108-0.753-0.144-1.13-0.024-0.244 0.156-0.461 0.4-0.484 0.249-0.030 0.461 0.156 0.485 0.4 0.034 0.359 0.080 0.72 0.137 1.073 0.039 0.243-0.126 0.471-0.368 0.509-0.024 0.005-0.048 0.007-0.072 0.007zM25.821 17.897c-0.043 0-0.087-0.006-0.131-0.019-0.773-0.238-1.536-0.533-2.269-0.877-0.222-0.104-0.318-0.368-0.213-0.591 0.104-0.221 0.367-0.318 0.591-0.213 0.695 0.326 1.42 0.606 2.153 0.832 0.235 0.072 0.366 0.321 0.294 0.556-0.060 0.191-0.236 0.313-0.425 0.313zM21.54 15.89c-0.084 0-0.168-0.024-0.243-0.072-0.676-0.441-1.328-0.935-1.939-1.468-0.185-0.161-0.204-0.443-0.043-0.628s0.443-0.203 0.627-0.043c0.581 0.506 1.2 0.975 1.841 1.393 0.205 0.134 0.264 0.41 0.129 0.616-0.086 0.13-0.228 0.201-0.373 0.201zM17.973 12.782c-0.124 0-0.248-0.051-0.335-0.153-0.532-0.611-1.026-1.264-1.466-1.939-0.134-0.206-0.076-0.481 0.13-0.616s0.481-0.076 0.615 0.13c0.418 0.64 0.886 1.26 1.392 1.841 0.161 0.185 0.142 0.466-0.044 0.627-0.084 0.074-0.188 0.109-0.292 0.109zM15.392 8.82c-0.167 0-0.327-0.095-0.403-0.256-0.343-0.732-0.637-1.496-0.875-2.269-0.072-0.235 0.060-0.484 0.295-0.556s0.483 0.060 0.555 0.294c0.226 0.734 0.505 1.459 0.83 2.154 0.104 0.222 0.008 0.486-0.214 0.59-0.061 0.028-0.125 0.042-0.188 0.042zM29.242 18.578c-0.014 0-0.028-0.001-0.042-0.003-0.376-0.035-0.757-0.084-1.131-0.144-0.242-0.039-0.407-0.268-0.368-0.509s0.267-0.408 0.509-0.368c0.355 0.057 0.715 0.103 1.072 0.137 0.244 0.024 0.424 0.24 0.4 0.484-0.021 0.229-0.215 0.402-0.441 0.402z"></path>
</symbol>
<symbol id="icon-calendar" viewBox="0 0 32 32">
<title>calendar</title>
<path d="M27.2 4.8h-1.6v3.2h-4.8v-3.2h-9.6v3.2h-4.8v-3.2h-1.6c-1.762 0-3.2 1.44-3.2 3.2v19.2c0 1.76 1.438 3.2 3.2 3.2h22.4c1.76 0 3.2-1.44 3.2-3.2v-19.2c0-1.76-1.44-3.2-3.2-3.2zM27.2 27.2h-22.4v-12.8h22.4v12.8zM10.4 1.6h-3.2v5.6h3.2v-5.6zM24.8 1.6h-3.2v5.6h3.2v-5.6z"></path>
</symbol>
<symbol id="icon-camera" viewBox="0 0 32 32">
<title>camera</title>
<path d="M16 12.8c-2.651 0-4.8 2.15-4.8 4.8s2.149 4.8 4.8 4.8c2.65 0 4.8-2.15 4.8-4.8s-2.15-4.8-4.8-4.8zM28.8 8h-3.84c-0.528 0-1.098-0.41-1.262-0.912l-0.994-2.978c-0.168-0.501-0.734-0.91-1.264-0.91h-10.88c-0.528 0-1.098 0.41-1.262 0.909l-0.995 2.979c-0.166 0.502-0.734 0.912-1.262 0.912h-3.84c-1.76 0-3.2 1.44-3.2 3.2v14.4c0 1.76 1.44 3.2 3.2 3.2h25.6c1.76 0 3.2-1.44 3.2-3.2v-14.4c0-1.76-1.44-3.2-3.2-3.2zM16 25.6c-4.419 0-8-3.581-8-8s3.581-8 8-8c4.418 0 8 3.581 8 8s-3.582 8-8 8zM28 13.12c-0.619 0-1.12-0.502-1.12-1.122 0-0.616 0.501-1.12 1.12-1.12s1.12 0.502 1.12 1.12c0 0.619-0.501 1.122-1.12 1.122z"></path>
</symbol>
<symbol id="icon-chat" viewBox="0 0 32 32">
<title>chat</title>
<path d="M9.28 19.52v-9.92h-6.080c-1.76 0-3.2 1.44-3.2 3.2v9.6c0 1.76 1.44 3.2 3.2 3.2h1.6v4.8l4.8-4.8h8c1.76 0 3.2-1.44 3.2-3.2v-2.912c-0.102 0.022-0.211 0.034-0.32 0.034l-11.2-0.002zM28.8 1.6h-14.4c-1.76 0-3.2 1.44-3.2 3.2v12.8h11.2l4.8 4.8v-4.8h1.6c1.76 0 3.2-1.438 3.2-3.2v-9.6c0-1.76-1.44-3.2-3.2-3.2z"></path>
</symbol>
<symbol id="icon-chat2" viewBox="0 0 32 32">
<title>chat2</title>
<path d="M12.386 30.333c-0.143 0-0.286-0.035-0.416-0.104-0.298-0.158-0.481-0.472-0.472-0.808l0.087-3.31h-2.229c-1.699 0-2.912-1.4-2.912-3.12v-11.616c0-1.677 1.213-3.041 2.912-3.041h17.839c1.699 0 3.25 1.364 3.25 3.041v11.616c0 1.72-1.551 3.12-3.25 3.12h-8.633l-5.657 4.056c-0.154 0.111-0.336 0.167-0.518 0.167zM9.356 10.111c-0.731 0-1.134 0.555-1.134 1.264v11.616c0 0.728 0.428 1.343 1.134 1.343h3.141c0.24 0 0.47 0.096 0.637 0.268s0.258 0.404 0.252 0.644l-0.064 2.434 4.435-3.18c0.151-0.108 0.332-0.167 0.518-0.167h8.919c0.706 0 1.472-0.615 1.472-1.343v-11.616c0-0.708-0.742-1.264-1.472-1.264h-17.838zM2.969 18.734c-0.21 0-0.335-0.074-0.504-0.224-0.65-0.576-0.909-1.332-0.909-2.186v-11.616c0-1.677 1.213-3.041 2.912-3.041h17.839c1.699 0 3.25 1.364 3.25 3.041v0.514c0 0.491-0.398 0.889-0.889 0.889s-0.889-0.398-0.889-0.889v-0.514c0-0.708-0.742-1.264-1.472-1.264h-17.839c-0.731 0-1.134 0.555-1.134 1.264v11.616c0 0.34 0.044 0.62 0.31 0.855 0.368 0.325 0.36 0.888 0.034 1.255-0.176 0.198-0.463 0.3-0.708 0.3zM15.164 14.111h-3.556c-0.246 0-0.444-0.199-0.444-0.444s0.199-0.444 0.444-0.444h3.556c0.246 0 0.444 0.199 0.444 0.444s-0.199 0.444-0.444 0.444zM21.386 14.111h-4.444c-0.246 0-0.444-0.199-0.444-0.444s0.199-0.444 0.444-0.444h4.444c0.246 0 0.444 0.199 0.444 0.444s-0.199 0.444-0.444 0.444zM24.942 14.111h-1.778c-0.246 0-0.444-0.199-0.444-0.444s0.199-0.444 0.444-0.444h1.778c0.246 0 0.444 0.199 0.444 0.444s-0.199 0.444-0.444 0.444zM13.386 16.333h-1.778c-0.246 0-0.444-0.199-0.444-0.444s0.199-0.444 0.444-0.444h1.778c0.246 0 0.444 0.199 0.444 0.444s-0.199 0.444-0.444 0.444zM18.72 16.333h-3.556c-0.246 0-0.444-0.199-0.444-0.444s0.199-0.444 0.444-0.444h3.556c0.246 0 0.444 0.199 0.444 0.444s-0.199 0.444-0.444 0.444zM24.942 16.333h-4.444c-0.246 0-0.444-0.199-0.444-0.444s0.199-0.444 0.444-0.444h4.444c0.246 0 0.444 0.199 0.444 0.444s-0.199 0.444-0.444 0.444zM16.053 19h-4.444c-0.246 0-0.444-0.199-0.444-0.444s0.199-0.444 0.444-0.444h4.444c0.246 0 0.444 0.199 0.444 0.444s-0.199 0.444-0.444 0.444zM22.275 19h-4.444c-0.246 0-0.444-0.199-0.444-0.444s0.199-0.444 0.444-0.444h4.444c0.246 0 0.444 0.199 0.444 0.444s-0.199 0.444-0.444 0.444zM24.942 19h-0.889c-0.246 0-0.444-0.199-0.444-0.444s0.199-0.444 0.444-0.444h0.889c0.246 0 0.444 0.199 0.444 0.444s-0.199 0.444-0.444 0.444zM13.386 21.222h-1.778c-0.246 0-0.444-0.199-0.444-0.444s0.199-0.444 0.444-0.444h1.778c0.246 0 0.444 0.199 0.444 0.444s-0.199 0.444-0.444 0.444zM18.275 21.222h-3.111c-0.246 0-0.444-0.199-0.444-0.444s0.199-0.444 0.444-0.444h3.111c0.246 0 0.444 0.199 0.444 0.444s-0.199 0.444-0.444 0.444z"></path>
</symbol>
<symbol id="icon-clock" viewBox="0 0 32 32">
<title>clock</title>
<path d="M20.586 23.414l-6.586-6.586v-8.828h4v7.172l5.414 5.414zM16 0c-8.837 0-16 7.163-16 16s7.163 16 16 16 16-7.163 16-16-7.163-16-16-16zM16 28c-6.627 0-12-5.373-12-12s5.373-12 12-12c6.627 0 12 5.373 12 12s-5.373 12-12 12z"></path>
</symbol>
<symbol id="icon-coffee" viewBox="0 0 32 32">
<title>coffee</title>
<path d="M24.039 27.020c-0.491 0-0.889-0.398-0.889-0.889s0.398-0.889 0.889-0.889c2.466 0 4.629-4.219 4.629-6.768 0-1.892-1.156-2.212-4.629-2.212-0.491 0-0.889-0.398-0.889-0.889s0.398-0.889 0.889-0.889c2.704 0 6.407 0 6.407 3.99 0 3.362-2.752 8.547-6.407 8.547zM20.039 30.474h-14.222c-3.641 0-4.263-1.727-4.263-4.88v-12.577c0-0.491 0.354-0.764 0.844-0.764h21.333c0.491 0 0.933 0.273 0.933 0.764v12.577c0 3.511-1.244 4.88-4.626 4.88zM3.332 14.030v11.564c0 2.672 0.216 3.103 2.485 3.103h14.222c2.384 0 2.848-0.57 2.848-3.103v-11.564h-19.556zM4.927 20.58c-0.116 0-0.231-0.048-0.316-0.129-0.080-0.084-0.129-0.2-0.129-0.316 0-0.12 0.049-0.235 0.129-0.316 0.164-0.164 0.467-0.164 0.631 0 0.080 0.084 0.129 0.196 0.129 0.316 0 0.116-0.049 0.232-0.129 0.316-0.084 0.080-0.2 0.129-0.316 0.129zM7.929 27.165c-2.519 0-3.264-0.77-3.264-3.296v-1.52c0-0.246 0.199-0.444 0.444-0.444s0.444 0.199 0.444 0.444v1.52c0 2.048 0.336 2.408 2.376 2.408 0.245 0 0.444 0.199 0.444 0.444s-0.199 0.444-0.444 0.444zM9.9 10.797c-0.256 0-0.51-0.11-0.686-0.323-0.312-0.379-0.259-0.939 0.12-1.251 0.692-0.571 1.11-1.16 1.119-1.577 0.003-0.14-0.032-0.361-0.365-0.661-0.929-0.836-2.863-2.576-1.038-5.092 0.288-0.398 0.844-0.486 1.241-0.198s0.486 0.844 0.198 1.241c-0.712 0.982-0.557 1.517 0.788 2.728 0.808 0.728 0.964 1.5 0.954 2.020-0.021 0.968-0.631 1.974-1.764 2.91-0.166 0.136-0.366 0.203-0.566 0.203zM15.234 10.797c-0.256 0-0.51-0.11-0.686-0.323-0.312-0.379-0.259-0.939 0.12-1.251 0.692-0.571 1.11-1.16 1.119-1.577 0.003-0.14-0.032-0.361-0.365-0.661-0.929-0.836-2.863-2.576-1.038-5.092 0.288-0.398 0.844-0.486 1.241-0.198s0.486 0.844 0.198 1.241c-0.712 0.982-0.557 1.517 0.788 2.728 0.808 0.728 0.964 1.5 0.954 2.020-0.021 0.968-0.631 1.974-1.764 2.91-0.166 0.136-0.366 0.203-0.566 0.203z"></path>
</symbol>
<symbol id="icon-diamond" viewBox="0 0 32 32">
<title>diamond</title>
<path d="M16.001 30.196c-0.682 0-1.332-0.344-1.782-0.944l-12.445-16.59c-0.812-1.083-0.852-2.807-0.092-3.927l3.575-5.17c0.68-1.001 2.19-1.76 3.508-1.76h14.465c1.319 0 2.829 0.758 3.513 1.763l3.566 5.194c0.771 1.133 0.732 2.81-0.088 3.904l-12.446 16.591c-0.448 0.597-1.094 0.939-1.773 0.939zM8.765 3.582c-0.73 0-1.684 0.461-2.042 0.988l-3.575 5.17c-0.332 0.49-0.311 1.377 0.048 1.855l12.446 16.59c0.223 0.297 0.489 0.301 0.711 0.006l12.446-16.592c0.36-0.481 0.38-1.338 0.043-1.834l-3.566-5.194c-0.36-0.528-1.314-0.988-2.045-0.988h-14.465zM30.108 11.138h-27.111c-0.245 0-0.444-0.199-0.444-0.444s0.199-0.444 0.444-0.444h27.111c0.246 0 0.444 0.199 0.444 0.444s-0.199 0.444-0.444 0.444zM15.293 10.968c-0.107 0-0.214-0.038-0.3-0.116l-8.212-7.496c-0.181-0.165-0.194-0.447-0.028-0.628s0.447-0.195 0.628-0.028l8.212 7.496c0.181 0.166 0.194 0.447 0.028 0.628-0.088 0.096-0.208 0.144-0.329 0.144zM16.415 10.968c-0.12 0-0.241-0.048-0.328-0.145-0.165-0.18-0.152-0.462 0.028-0.628l4.367-3.986c0.181-0.166 0.463-0.152 0.628 0.028s0.152 0.463-0.028 0.628l-4.367 3.986c-0.085 0.078-0.193 0.116-0.3 0.116zM21.924 5.94c-0.12 0-0.24-0.048-0.328-0.144-0.166-0.181-0.153-0.463 0.028-0.628l0.309-0.283c0.181-0.165 0.462-0.152 0.628 0.028s0.153 0.462-0.028 0.628l-0.309 0.283c-0.085 0.078-0.192 0.116-0.3 0.116zM23.303 4.681c-0.12 0-0.241-0.048-0.328-0.145-0.165-0.181-0.153-0.462 0.028-0.628l1.324-1.209c0.182-0.166 0.463-0.153 0.628 0.028s0.153 0.462-0.028 0.628l-1.324 1.209c-0.086 0.078-0.193 0.116-0.3 0.116zM9.513 12.476c-0.178 0-0.345-0.107-0.414-0.282l-0.534-1.338c-0.089-0.228 0.024-0.486 0.252-0.576 0.23-0.089 0.487 0.024 0.576 0.252l0.534 1.338c0.089 0.228-0.024 0.486-0.252 0.576-0.053 0.021-0.108 0.031-0.162 0.031zM10.102 13.979c-0.177 0-0.345-0.107-0.414-0.282l-0.156-0.398c-0.089-0.228 0.024-0.486 0.252-0.576s0.487 0.024 0.576 0.251l0.156 0.398c0.090 0.229-0.023 0.487-0.252 0.576-0.053 0.021-0.108 0.031-0.162 0.031zM15.997 29.042c-0.177 0-0.345-0.107-0.414-0.282l-5.296-13.532c-0.089-0.228 0.023-0.486 0.252-0.576s0.487 0.024 0.576 0.252l5.296 13.532c0.089 0.228-0.023 0.486-0.252 0.576-0.054 0.021-0.108 0.031-0.162 0.031zM15.997 29.042c-0.053 0-0.108-0.009-0.16-0.029-0.229-0.088-0.343-0.346-0.254-0.576l6.864-17.709c0.089-0.229 0.346-0.343 0.575-0.254s0.343 0.346 0.254 0.576l-6.864 17.709c-0.069 0.176-0.236 0.284-0.415 0.284z"></path>
</symbol>
<symbol id="icon-edit" viewBox="0 0 32 32">
<title>edit</title>
<path d="M28.098 3.902c-2.307-2.309-4.040-1.963-4.040-1.963l-20.522 20.52-1.616 7.619 7.621-1.616 20.522-20.517c-0.002 0 0.346-1.733-1.965-4.043zM9.088 27.547l-2.598 0.56c-0.25-0.469-0.552-0.938-1.104-1.491s-1.022-0.853-1.491-1.106l0.56-2.597 0.752-0.75c0 0 1.413 0.029 3.010 1.626 1.595 1.594 1.626 3.010 1.626 3.010l-0.754 0.749z"></path>
</symbol>
<symbol id="icon-facebook" viewBox="0 0 32 32">
<title>facebook</title>
<path d="M23.982 0.214v4.714h-2.803c-2.197 0-2.607 1.054-2.607 2.571v3.375h5.232l-0.696 5.286h-4.536v13.553h-5.464v-13.553h-4.553v-5.286h4.553v-3.893c0-4.518 2.768-6.982 6.803-6.982 1.928 0 3.59 0.143 4.072 0.214z"></path>
</symbol>
<symbol id="icon-notebook" viewBox="0 0 32 32">
<title>notebook</title>
<path d="M27.556 27.586c0 1.701-1.38 3.080-3.081 3.080h-16.949c-1.701 0-3.081-1.379-3.081-3.080v-20.505c0-1.701 1.38-3.081 3.081-3.081h16.95c1.701 0 3.080 1.38 3.080 3.081v20.505zM25.778 7.081c0-0.72-0.583-1.303-1.303-1.303h-16.949c-0.72 0-1.303 0.584-1.303 1.303v20.505c0 0.72 0.584 1.303 1.303 1.303h16.95c0.72 0 1.303-0.583 1.303-1.303v-20.505zM22.454 27.556h-7.29c-0.246 0-0.444-0.199-0.444-0.444s0.199-0.444 0.444-0.444h7.29c0.702 0 1.102-0.84 1.102-2.14v-1.415c0-0.246 0.199-0.444 0.444-0.444s0.444 0.199 0.444 0.444v1.415c0 1.84-0.749 3.029-1.991 3.029zM24.106 21.311c-0.116 0-0.231-0.044-0.316-0.128-0.080-0.081-0.129-0.196-0.129-0.316 0-0.116 0.049-0.231 0.129-0.311 0.169-0.165 0.462-0.169 0.631-0.004 0.080 0.084 0.129 0.2 0.129 0.315s-0.048 0.231-0.129 0.316c-0.084 0.084-0.2 0.128-0.316 0.128zM8.889 8.889c-0.491 0-0.889-0.398-0.889-0.889v-5.778c0-0.491 0.398-0.889 0.889-0.889s0.889 0.398 0.889 0.889v5.778c0 0.491-0.398 0.889-0.889 0.889zM13.778 8.889c-0.491 0-0.889-0.398-0.889-0.889v-5.778c0-0.491 0.398-0.889 0.889-0.889s0.889 0.398 0.889 0.889v5.778c0 0.491-0.398 0.889-0.889 0.889zM18.667 8.889c-0.491 0-0.889-0.398-0.889-0.889v-5.778c0-0.491 0.398-0.889 0.889-0.889s0.889 0.398 0.889 0.889v5.778c0 0.491-0.398 0.889-0.889 0.889zM23.556 8.889c-0.491 0-0.889-0.398-0.889-0.889v-5.778c0-0.491 0.398-0.889 0.889-0.889s0.889 0.398 0.889 0.889v5.778c0 0.491-0.398 0.889-0.889 0.889zM26.72 12.444h-21.333c-0.246 0-0.444-0.199-0.444-0.444s0.199-0.444 0.444-0.444h21.333c0.245 0 0.444 0.199 0.444 0.444s-0.199 0.444-0.444 0.444z"></path>
</symbol>
<symbol id="icon-pencil2" viewBox="0 0 32 32">
<title>pencil2</title>
<path d="M2.86 30.188c-0.233 0-0.46-0.092-0.628-0.26l-0.193-0.193c-0.22-0.22-0.308-0.537-0.235-0.839 0.269-1.107 1.683-6.698 3.059-8.074l17.832-17.832c0.76-0.76 1.782-1.179 2.877-1.179 1.159 0 2.258 0.46 3.094 1.297l0.193 0.193c0.796 0.795 1.289 1.896 1.356 3.019 0.070 1.194-0.326 2.286-1.115 3.075l-17.833 17.832c-1.383 1.383-7.086 2.693-8.215 2.941-0.064 0.015-0.128 0.021-0.191 0.021zM25.572 3.589c-0.62 0-1.196 0.233-1.62 0.658l-17.832 17.832c-0.647 0.647-1.632 3.635-2.292 6.082 2.492-0.613 5.538-1.548 6.182-2.192l17.833-17.832c0.425-0.425 0.637-1.034 0.597-1.713-0.041-0.695-0.346-1.375-0.838-1.866l-0.193-0.193c-0.5-0.5-1.153-0.776-1.837-0.776zM27.092 9.854c-0.114 0-0.228-0.044-0.314-0.13l-4.78-4.779c-0.174-0.174-0.174-0.455 0-0.628s0.455-0.174 0.628 0l4.78 4.78c0.174 0.174 0.174 0.455 0 0.628-0.087 0.087-0.2 0.13-0.314 0.13zM10.914 26.032c-0.114 0-0.228-0.044-0.314-0.13l-4.78-4.78c-0.174-0.174-0.174-0.455 0-0.628s0.455-0.174 0.628 0l4.78 4.78c0.174 0.174 0.174 0.455 0 0.628-0.087 0.087-0.2 0.13-0.314 0.13zM7.418 28.315c-0.114 0-0.228-0.044-0.314-0.13l-3.062-3.063c-0.174-0.174-0.174-0.455 0-0.628s0.455-0.174 0.628 0l3.062 3.062c0.174 0.174 0.174 0.455 0 0.628-0.087 0.087-0.2 0.131-0.314 0.131zM7.972 23.091c-0.114 0-0.228-0.044-0.314-0.13-0.174-0.174-0.174-0.455 0-0.628l13.237-13.236c0.174-0.174 0.455-0.174 0.628 0s0.174 0.455 0 0.628l-13.237 13.236c-0.087 0.087-0.2 0.13-0.314 0.13zM22.496 8.567c-0.114 0-0.228-0.044-0.314-0.13-0.174-0.174-0.174-0.455 0-0.628l1.655-1.655c0.174-0.174 0.455-0.174 0.628 0s0.174 0.455 0 0.628l-1.655 1.655c-0.087 0.087-0.2 0.13-0.314 0.13zM9.443 24.561c-0.114 0-0.228-0.044-0.314-0.13-0.174-0.174-0.174-0.455 0-0.628l16.178-16.177c0.174-0.174 0.455-0.174 0.628 0s0.174 0.455 0 0.628l-16.178 16.177c-0.087 0.087-0.201 0.13-0.314 0.13z"></path>
</symbol>
<symbol id="icon-phone" viewBox="0 0 32 32">
<title>phone</title>
<path d="M17.966 17.966c-2.533 2.531-5.467 4.954-6.627 3.794-1.659-1.659-2.683-3.106-6.344-0.163-3.659 2.941-0.848 4.902 0.76 6.509 1.856 1.856 8.774 0.099 15.613-6.738 6.837-6.838 8.589-13.757 6.731-15.613-1.608-1.61-3.56-4.419-6.501-0.76s-1.498 4.683 0.165 6.344c1.155 1.16-1.266 4.094-3.797 6.627z"></path>
</symbol>
<symbol id="icon-photo" viewBox="0 0 32 32">
<title>photo</title>
<path d="M16.053 23.879c-3.492 0-6.333-2.841-6.333-6.333s2.841-6.333 6.333-6.333 6.333 2.841 6.333 6.333c0 3.492-2.841 6.333-6.333 6.333zM16.053 12.101c-3.002 0-5.444 2.442-5.444 5.444s2.442 5.444 5.444 5.444 5.444-2.443 5.444-5.444c0-3.002-2.442-5.444-5.444-5.444zM12.793 16.274c-0.077 0-0.156-0.020-0.227-0.063-0.211-0.125-0.28-0.398-0.156-0.609 0.871-1.466 2.469-2.376 4.173-2.376 0.245 0 0.444 0.199 0.444 0.444s-0.199 0.444-0.444 0.444c-1.392 0-2.697 0.744-3.408 1.941-0.083 0.14-0.231 0.218-0.382 0.218zM12.179 18.368c-0.246 0-0.444-0.199-0.444-0.444 0-0.391 0.046-0.607 0.127-0.954 0.056-0.24 0.293-0.387 0.534-0.332 0.239 0.056 0.388 0.294 0.332 0.534-0.072 0.308-0.104 0.456-0.104 0.752 0 0.245-0.199 0.444-0.444 0.444zM27.417 28.444h-22.728c-1.76 0-3.134-1.428-3.134-3.091v-13.839c0-1.648 1.343-3.070 3.134-3.070h2.146l1.536-3.075c0.017-0.034 0.036-0.060 0.058-0.092 1.056-1.573 2.141-1.716 3.163-1.716l0.596-0.006h7.47c1.677 0 2.899 0.559 3.734 1.679 0.022 0.029 0.042 0.052 0.060 0.084l1.784 3.126h2.18c1.656 0 3.028 1.308 3.028 3.070v13.839c0 1.779-1.398 3.091-3.028 3.091zM4.689 10.222c-0.705 0-1.356 0.581-1.356 1.292v13.839c0 0.677 0.586 1.313 1.356 1.313h22.728c0.743 0 1.25-0.667 1.25-1.313v-13.839c0-0.611-0.453-1.292-1.25-1.292h-2.697c-0.32 0-0.615-0.157-0.772-0.435l-2.011-3.524c-0.493-0.636-1.178-0.904-2.278-0.904l-8.066-0.003c-0.692 0-1.084 0.040-1.656 0.872l-1.754 3.515c-0.151 0.303-0.46 0.479-0.797 0.479h-2.697zM29.386 15.111h-8c-0.246 0-0.444-0.199-0.444-0.444s0.199-0.444 0.444-0.444h8c0.245 0 0.444 0.199 0.444 0.444s-0.199 0.444-0.444 0.444zM10.72 15.111h-8.444c-0.246 0-0.444-0.199-0.444-0.444s0.199-0.444 0.444-0.444h8.444c0.245 0 0.444 0.199 0.444 0.444s-0.199 0.444-0.444 0.444zM23.164 21.333h-2.222c-0.246 0-0.444-0.199-0.444-0.444s0.199-0.444 0.444-0.444h2.222c0.245 0 0.444 0.199 0.444 0.444s-0.199 0.444-0.444 0.444zM24.942 21.333h-0.444c-0.246 0-0.444-0.199-0.444-0.444s0.199-0.444 0.444-0.444h0.444c0.245 0 0.444 0.199 0.444 0.444s-0.199 0.444-0.444 0.444zM28.942 21.333h-2.667c-0.246 0-0.444-0.199-0.444-0.444s0.199-0.444 0.444-0.444h2.667c0.245 0 0.444 0.199 0.444 0.444s-0.199 0.444-0.444 0.444zM10.72 21.333h-8.444c-0.246 0-0.444-0.199-0.444-0.444s0.199-0.444 0.444-0.444h8.444c0.245 0 0.444 0.199 0.444 0.444s-0.199 0.444-0.444 0.444z"></path>
</symbol>
<symbol id="icon-placeholder" viewBox="0 0 32 32">
<title>placeholder</title>
<path d="M16.053 15.248c-1.091 0-2.117-0.425-2.889-1.196-1.592-1.592-1.592-4.182 0-5.774 0.771-0.771 1.797-1.196 2.888-1.196v0c1.091 0 2.117 0.425 2.888 1.196 1.592 1.592 1.592 4.182 0 5.774-0.771 0.771-1.797 1.196-2.887 1.196zM16.052 8.859c-0.616 0-1.195 0.24-1.631 0.676-0.899 0.899-0.899 2.361 0 3.26 0.436 0.435 1.016 0.676 1.632 0.676s1.195-0.24 1.63-0.676c0.898-0.899 0.898-2.361 0-3.26-0.436-0.436-1.015-0.676-1.631-0.676zM21.932 10.246c-0.201 0-0.384-0.138-0.432-0.343-0.033-0.141-0.056-0.244-0.072-0.324-0.029-0.136-0.037-0.17-0.058-0.218-0.096-0.226 0.008-0.487 0.232-0.584 0.225-0.095 0.487 0.007 0.584 0.232 0.056 0.129 0.076 0.225 0.11 0.383 0.016 0.075 0.037 0.172 0.068 0.306 0.056 0.239-0.091 0.478-0.331 0.535-0.033 0.008-0.068 0.012-0.102 0.012zM21.128 8.335c-0.148 0-0.292-0.073-0.376-0.206-0.92-1.451-2.422-2.416-4.12-2.647-0.244-0.033-0.414-0.257-0.381-0.5s0.256-0.413 0.501-0.38c1.959 0.268 3.691 1.38 4.752 3.051 0.131 0.208 0.069 0.482-0.137 0.614-0.075 0.047-0.156 0.069-0.238 0.069zM16.044 30.55c-0.743 0-2.16-0.338-3.308-2.6-1.33-2.62-6.28-13.523-6.28-16.957 0-5.262 4.281-9.544 9.544-9.544s9.544 4.281 9.544 9.544c0 3.396-4.937 14.438-6.199 16.953-0.842 1.679-2.014 2.604-3.301 2.604zM16 3.228c-4.282 0-7.766 3.484-7.766 7.766 0 2.698 4.321 12.67 6.088 16.152 0.524 1.034 1.152 1.627 1.722 1.627 0.563 0 1.203-0.607 1.712-1.622 1.545-3.080 6.010-13.418 6.010-16.156 0-4.282-3.484-7.766-7.766-7.766z"></path>
</symbol>
<symbol id="icon-portfolio" viewBox="0 0 32 32">
<title>portfolio</title>
<path d="M30.444 27.142c0 1.701-1.38 3.081-3.081 3.081h-22.727c-1.701 0-3.081-1.38-3.081-3.081v-16.505c0-1.701 1.38-3.081 3.081-3.081h22.728c1.701 0 3.081 1.38 3.081 3.081v16.505zM28.667 10.636c0-0.72-0.584-1.303-1.303-1.303h-22.727c-0.72 0-1.303 0.584-1.303 1.303v16.505c0 0.72 0.584 1.303 1.303 1.303h22.728c0.72 0 1.303-0.584 1.303-1.303v-16.505zM19.778 9.333c-0.491 0-0.889-0.398-0.889-0.889v-3.905c0-0.813-1.055-0.984-1.616-0.984h-3.172c-0.141 0-0.99 0.028-0.99 0.984v3.904c0 0.491-0.398 0.889-0.889 0.889s-0.889-0.398-0.889-0.889v-3.905c0-1.6 0.94-2.762 2.768-2.762h3.172c1.77 0 3.394 1.136 3.394 2.762v3.904c0 0.491-0.399 0.889-0.889 0.889zM13.169 19.111h-5.778c-0.246 0-0.444-0.199-0.444-0.444s0.199-0.444 0.444-0.444h5.778c0.246 0 0.444 0.199 0.444 0.444s-0.199 0.444-0.444 0.444zM4.724 19.111h-2.222c-0.246 0-0.444-0.199-0.444-0.444s0.199-0.444 0.444-0.444h2.222c0.246 0 0.444 0.199 0.444 0.444s-0.199 0.444-0.444 0.444zM29.614 19.111h-11.111c-0.246 0-0.444-0.199-0.444-0.444s0.199-0.444 0.444-0.444h11.111c0.246 0 0.444 0.199 0.444 0.444s-0.199 0.444-0.444 0.444zM18.889 19.969c0 0.999-0.81 1.809-1.809 1.809h-2.16c-0.999 0-1.809-0.81-1.809-1.809v-2.16c0-0.999 0.81-1.809 1.809-1.809h2.16c0.999 0 1.809 0.81 1.809 1.809v2.16zM18 17.809c0-0.509-0.412-0.92-0.92-0.92h-2.16c-0.508 0-0.92 0.412-0.92 0.92v2.16c0 0.508 0.412 0.92 0.92 0.92h2.16c0.508 0 0.92-0.412 0.92-0.92v-2.16z"></path>
</symbol>
<symbol id="icon-sportive" viewBox="0 0 32 32">
<title>sportive</title>
<path d="M16 17.65c-2.949 0-5.348-2.399-5.348-5.348s2.399-5.347 5.348-5.347c2.949 0 5.348 2.399 5.348 5.347s-2.399 5.348-5.348 5.348zM16 7.844c-2.459 0-4.459 2-4.459 4.458s2 4.459 4.459 4.459 4.459-2 4.459-4.459c0-2.458-2-4.458-4.459-4.458zM13.169 12.196c-0.246 0-0.444-0.199-0.444-0.444 0-0.3 0.041-0.477 0.108-0.732 0.063-0.237 0.304-0.38 0.544-0.316 0.237 0.063 0.379 0.306 0.316 0.544-0.055 0.207-0.079 0.306-0.079 0.504 0 0.245-0.199 0.444-0.444 0.444zM16 15.578c-1.415 0-2.664-0.902-3.109-2.244-0.077-0.232 0.049-0.484 0.282-0.562 0.234-0.076 0.485 0.049 0.562 0.282 0.324 0.977 1.235 1.635 2.266 1.635 0.245 0 0.444 0.199 0.444 0.444s-0.2 0.444-0.445 0.444zM18.27 22.766c-0.389 0-0.771-0.113-1.106-0.328l-0.592-0.38c-0.268-0.172-0.876-0.172-1.145 0l-0.591 0.38c-0.336 0.215-0.718 0.328-1.107 0.328-0.752 0.001-1.437-0.423-1.789-1.103l-0.323-0.625c-0.152-0.293-0.622-0.573-0.967-0.573l-0.726 0.034c-0.606 0.026-1.163-0.195-1.567-0.618-0.383-0.401-0.58-0.935-0.553-1.503l0.032-0.7c0.016-0.344-0.268-0.835-0.572-0.992l-0.624-0.323c-0.512-0.264-0.89-0.728-1.036-1.273s-0.052-1.136 0.26-1.622l0.38-0.592c0.184-0.288 0.184-0.856-0.001-1.145l-0.379-0.59c-0.312-0.487-0.407-1.078-0.261-1.622s0.524-1.009 1.036-1.274l0.625-0.323c0.304-0.157 0.588-0.648 0.572-0.991l-0.032-0.702c-0.027-0.566 0.17-1.1 0.553-1.501 0.404-0.424 0.965-0.628 1.567-0.606l0.702 0.046c0 0 0.001 0 0.001 0 0.369 0 0.839-0.291 0.991-0.585l0.322-0.629c0.352-0.682 1.038-1.108 1.789-1.108 0.389 0 0.772 0.112 1.107 0.327l0.591 0.379c0.268 0.172 0.876 0.172 1.144 0l0.592-0.38c0.334-0.214 0.716-0.328 1.106-0.328 0.751 0 1.436 0.423 1.789 1.104l0.323 0.624c0.152 0.295 0.621 0.573 0.966 0.573l0.727-0.034c0.61-0.022 1.163 0.195 1.567 0.619 0.383 0.401 0.58 0.935 0.553 1.502l-0.032 0.7c-0.016 0.344 0.268 0.835 0.572 0.992l0.624 0.322c0.513 0.266 0.891 0.73 1.036 1.275s0.051 1.136-0.26 1.621l-0.38 0.592c-0.185 0.288-0.185 0.856 0 1.145l0.379 0.591c0.312 0.487 0.407 1.078 0.26 1.623s-0.524 1.008-1.036 1.273l-0.623 0.323c-0.305 0.157-0.588 0.648-0.572 0.991l0.032 0.702c0.027 0.567-0.17 1.1-0.553 1.502-0.382 0.4-0.903 0.62-1.467 0.62 0 0 0 0 0 0-0.033 0-0.066 0.071-0.1 0.069l-0.701 0.039c0 0-0.001 0-0.001 0-0.369 0-0.838 0.206-0.99 0.5l-0.323 0.588c-0.351 0.681-1.036 1.067-1.788 1.067zM16 20.143c0.566 0 1.11 0.148 1.532 0.418l0.592 0.38c0.048 0.031 0.098 0.047 0.147 0.047 0.051 0 0.145-0.018 0.21-0.142l0.323-0.624c0.475-0.92 1.62-1.529 2.653-1.477l0.702 0.088c0 0 0.001 0 0.002 0 0.11 0 0.166-0.092 0.196-0.124 0.045-0.047 0.066-0.14 0.063-0.219l-0.032-0.716c-0.048-1.036 0.61-2.184 1.532-2.66l0.624-0.326c0.090-0.046 0.123-0.112 0.136-0.156s0.015-0.118-0.040-0.204l-0.379-0.591c-0.56-0.874-0.56-2.192 0-3.065l0.38-0.592c0.054-0.085 0.052-0.157 0.040-0.202s-0.046-0.109-0.136-0.156l-0.623-0.322c-0.923-0.477-1.581-1.618-1.532-2.655l0.032-0.7c0.004-0.079-0.018-0.145-0.063-0.192-0.031-0.032-0.087-0.070-0.181-0.070l-0.718 0.033c-1.044 0.049-2.178-0.612-2.654-1.532l-0.323-0.624c-0.065-0.125-0.159-0.143-0.21-0.143-0.048 0-0.097 0.016-0.146 0.047l-0.593 0.38c-0.843 0.54-2.221 0.54-3.064 0l-0.592-0.38c-0.049-0.032-0.099-0.047-0.147-0.047-0.051 0-0.146 0.018-0.21 0.143l-0.322 0.623c-0.477 0.921-1.615 1.616-2.655 1.563l-0.701-0.003c-0.001 0-0.001 0-0.002 0-0.11 0-0.166 0.008-0.196 0.040-0.045 0.047-0.067 0.098-0.063 0.176l0.032 0.695c0.048 1.036-0.61 2.173-1.532 2.65l-0.624 0.32c-0.089 0.046-0.123 0.109-0.135 0.154s-0.015 0.116 0.040 0.202l0.379 0.59c0.56 0.874 0.56 2.191 0.001 3.064l-0.38 0.592c-0.054 0.084-0.051 0.156-0.040 0.201s0.046 0.108 0.135 0.154l0.625 0.324c0.921 0.476 1.58 1.617 1.532 2.654l-0.032 0.7c-0.004 0.079 0.018 0.146 0.063 0.193 0.030 0.032 0.087 0.070 0.181 0.070l0.718-0.034c1.043-0.044 2.177 0.611 2.654 1.531l0.323 0.626c0.064 0.123 0.159 0.141 0.21 0.141 0.049 0 0.099-0.016 0.148-0.047l0.59-0.38c0.421-0.269 0.966-0.418 1.532-0.418zM13.056 29.272c-0.185 0-0.368-0.057-0.523-0.169l-2.019-1.467-2.405 0.663c-0.294 0.083-0.61 0.006-0.836-0.2s-0.329-0.514-0.275-0.815l1.444-7.952c0.049-0.273 0.225-0.509 0.473-0.634s0.541-0.128 0.792-0.006c0.058 0.028 0.099 0.032 0.124 0.032l0.712-0.034c1.043-0.044 2.177 0.611 2.654 1.531l0.323 0.626c0.067 0.13 0.199 0.172 0.329 0.103 0.301-0.158 0.665-0.13 0.939 0.071s0.409 0.541 0.348 0.875l-1.207 6.646c-0.055 0.301-0.26 0.552-0.544 0.667-0.106 0.044-0.219 0.064-0.33 0.064zM10.69 25.776c0.186 0 0.369 0.058 0.522 0.17l1.221 0.886 0.752-4.146c-0.528-0.148-0.981-0.513-1.246-1.024l-0.323-0.625c-0.152-0.293-0.622-0.573-0.967-0.573l-0.614 0.028-1.038 5.716 1.454-0.401c0.079-0.021 0.158-0.032 0.237-0.032zM16.984 30.16c-0.112 0-0.224-0.021-0.331-0.064-0.284-0.114-0.489-0.365-0.544-0.667l-1.486-8.181c-0.085-0.468 0.213-0.919 0.676-1.025 0.764-0.175 1.635-0.045 2.232 0.338l0.592 0.38c0.048 0.031 0.098 0.047 0.147 0.047 0.051 0 0.145-0.018 0.21-0.142l0.323-0.624c0.475-0.92 1.62-1.529 2.653-1.477l0.702 0.088c0 0 0.001 0 0.001 0 0.124 0 0.207-0.106 0.242-0.196 0.144-0.372 0.517-0.627 0.913-0.592 0.396 0.038 0.72 0.32 0.791 0.713l1.602 8.812c0.029 0.088 0.045 0.119 0.045 0.217 0 0.491-0.398 0.824-0.889 0.824-0.004 0-0.007 0-0.009 0-0.079 0-0.158 0.050-0.236 0.028l-3.867-1.035-3.246 2.372c-0.154 0.112-0.337 0.185-0.522 0.185zM16.578 22.062l1.028 5.66 2.447-1.777c0.219-0.159 0.499-0.21 0.759-0.138l2.916 0.803-1.118-6.155c-0.14 0.030-0.287 0.118-0.435 0.118l-0.8 0.036c0 0-0.001 0-0.001 0-0.369 0-0.838 0.206-0.99 0.5l-0.323 0.588c-0.352 0.681-1.038 1.086-1.789 1.086-0.389 0-0.771-0.122-1.106-0.337l-0.587-0.385z"></path>
</symbol>
<symbol id="icon-thumbs-up" viewBox="0 0 32 32">
<title>thumbs-up</title>
<path d="M6.286 24c0-0.625-0.518-1.143-1.143-1.143-0.642 0-1.143 0.518-1.143 1.143 0 0.642 0.501 1.143 1.143 1.143 0.625 0 1.143-0.501 1.143-1.143zM9.143 14.857v11.429c0 0.625-0.518 1.143-1.143 1.143h-5.143c-0.625 0-1.143-0.518-1.143-1.143v-11.429c0-0.625 0.518-1.143 1.143-1.143h5.143c0.625 0 1.143 0.518 1.143 1.143zM30.286 14.857c0 0.946-0.375 1.965-0.982 2.661 0.197 0.571 0.267 1.107 0.267 1.358 0.035 0.893-0.232 1.733-0.768 2.447 0.197 0.661 0.197 1.375 0 2.089-0.178 0.661-0.518 1.25-0.965 1.679 0.107 1.339-0.197 2.429-0.875 3.232-0.768 0.911-1.946 1.375-3.518 1.393h-2.304c-2.553 0-4.965-0.839-6.893-1.501-1.125-0.393-2.197-0.768-2.822-0.786-0.607-0.018-1.143-0.518-1.143-1.143v-11.447c0-0.59 0.501-1.089 1.089-1.143 0.661-0.054 2.375-2.178 3.161-3.214 0.642-0.822 1.25-1.59 1.803-2.143 0.696-0.696 0.893-1.768 1.107-2.803 0.197-1.054 0.41-2.161 1.178-2.911 0.214-0.214 0.501-0.339 0.803-0.339 4 0 4 3.197 4 4.571 0 1.464-0.518 2.501-1 3.429-0.197 0.393-0.375 0.571-0.518 1.143h4.946c1.857 0 3.429 1.571 3.429 3.429z"></path>
</symbol>
<symbol id="icon-user" viewBox="0 0 32 32">
<title>user</title>
<path d="M12.36 3.434c-1.626 1.21-2.062 3.125-1.982 4.144 0.102 1.246 0.355 2.869 0.355 2.869s-0.501 0.272-0.501 1.366c0.174 2.747 1.093 1.562 1.282 2.766 0.454 2.902 1.493 2.386 1.493 3.97 0 2.638-1.088 3.872-4.485 5.334-3.408 1.469-6.922 3.317-6.922 6.517v1.6h28.8v-1.6c0-3.2-3.515-5.048-6.925-6.515-3.397-1.462-4.482-2.694-4.482-5.334 0-1.584 1.035-1.067 1.491-3.97 0.19-1.205 1.107-0.019 1.285-2.766 0-1.094-0.502-1.366-0.502-1.366s0.253-1.622 0.354-2.869c0.104-1.307-0.637-4.098-3.68-4.954-0.533-0.544-0.893-1.41 0.746-2.278-3.584-0.168-4.418 1.707-6.326 3.086z"></path>
</symbol>
<symbol id="icon-user2" viewBox="0 0 32 32">
<title>user2</title>
<path d="M16.037 20.068c-4.218 0-7.301-7.658-7.301-11.644 0-4.026 3.275-7.301 7.301-7.301s7.301 3.275 7.301 7.301c0 3.986-3.084 11.644-7.301 11.644zM16.037 2.9c-3.046 0-5.524 2.478-5.524 5.524 0 3.451 2.839 9.867 5.524 9.867s5.524-6.416 5.524-9.867c0-3.046-2.478-5.524-5.524-5.524zM12.306 9.078c-0.246 0-0.444-0.199-0.444-0.444 0-2.444 1.988-4.432 4.432-4.432 0.245 0 0.444 0.199 0.444 0.444s-0.199 0.444-0.444 0.444c-1.954 0-3.544 1.59-3.544 3.544 0 0.246-0.199 0.444-0.444 0.444zM12.462 10.784c-0.12 0-0.231-0.044-0.316-0.129s-0.129-0.2-0.129-0.316 0.045-0.231 0.129-0.316c0.164-0.164 0.462-0.164 0.627 0 0.084 0.084 0.133 0.2 0.133 0.316 0 0.12-0.048 0.232-0.133 0.316-0.080 0.085-0.195 0.129-0.311 0.129zM16 30.878c-2.511 0-10.704-0.256-10.704-3.556 0-4.727 3.119-8.99 7.585-10.367l0.544-0.168 0.38 0.424c1.361 1.52 2.989 1.592 4.449-0.029l0.383-0.425 0.545 0.172c4.428 1.397 7.521 5.671 7.521 10.393 0 3.299-8.193 3.555-10.704 3.555zM12.901 18.827c-3.456 1.304-5.827 4.722-5.827 8.496 0 0.49 2.744 1.778 8.926 1.778s8.926-1.288 8.926-1.778c0-3.772-2.348-7.2-5.772-8.52-0.952 0.889-2.020 1.355-3.117 1.355-1.124 0-2.197-0.458-3.136-1.331z"></path>
</symbol>
<symbol id="icon-video" viewBox="0 0 32 32">
<title>video</title>
<path d="M7.493 12.307c-3.043 0-5.518-2.475-5.518-5.518s2.476-5.519 5.518-5.519c3.044 0 5.519 2.476 5.519 5.519s-2.476 5.518-5.519 5.518zM7.493 3.048c-2.063 0-3.74 1.678-3.74 3.741s1.678 3.74 3.74 3.74c2.063 0 3.741-1.678 3.741-3.74s-1.678-3.741-3.741-3.741zM5.046 7.233c-0.246 0-0.444-0.199-0.444-0.444l-0.002-0.089c-0.003-0.093-0.003-0.16 0.025-0.306 0.046-0.241 0.281-0.397 0.52-0.353 0.241 0.046 0.399 0.28 0.353 0.52-0.011 0.058-0.011 0.058-0.009 0.109l0.002 0.119c0 0.245-0.2 0.444-0.445 0.444zM5.459 5.872c-0.085 0-0.171-0.024-0.247-0.075-0.204-0.137-0.258-0.413-0.122-0.617 0.539-0.804 1.437-1.283 2.403-1.283 0.246 0 0.444 0.199 0.444 0.444s-0.199 0.444-0.444 0.444c-0.669 0-1.292 0.332-1.664 0.889-0.086 0.128-0.227 0.197-0.37 0.197zM19.938 12.307c-3.043 0-5.518-2.475-5.518-5.518s2.476-5.519 5.518-5.519c3.044 0 5.519 2.476 5.519 5.519s-2.476 5.518-5.519 5.518zM19.938 3.048c-2.063 0-3.74 1.678-3.74 3.741s1.678 3.74 3.74 3.74c2.063 0 3.741-1.678 3.741-3.74s-1.678-3.741-3.741-3.741zM17.904 5.872c-0.085 0-0.171-0.024-0.247-0.075-0.204-0.137-0.258-0.413-0.122-0.617 0.539-0.804 1.437-1.283 2.403-1.283 0.246 0 0.444 0.199 0.444 0.444s-0.199 0.444-0.444 0.444c-0.669 0-1.292 0.332-1.664 0.889-0.086 0.128-0.227 0.197-0.37 0.197zM20.528 30.73h-16.505c-1.728 0-3.134-1.123-3.134-2.788v-11.616c0-1.731 1.464-3.373 3.134-3.373h16.505c1.699 0 3.081 1.497 3.081 3.227 0 0.022-0.001 0.088-0.002 0.109l-0.022 0.333c1.307-0.68 3.306-1.731 4.703-2.478 0.471-0.228 0.859-0.324 1.218-0.324 0.443 0 0.805 0.16 1.097 0.457 0.555 0.563 0.509 1.396 0.509 1.75v12.006c0 0.535-0.076 0.93-0.298 1.235-0.188 0.26-0.576 0.574-1.218 0.574 0 0 0.028 0 0.028 0-0.36 0-0.732-0.099-1.2-0.243-0.053-0.016-0.097-0.039-0.146-0.065-1.701-0.896-3.536-1.847-4.717-2.439l0.046 0.74c0.001 0.017 0.003-0.056 0.003-0.038-0.001 1.696-1.354 2.935-3.081 2.935zM4.022 14.73c-0.694 0-1.356 0.842-1.356 1.596v11.616c0 0.69 0.601 1.010 1.356 1.010h16.505c0.723 0 1.29-0.445 1.303-1.134l-0.131-2.149c-0.015-0.245 0.072-0.462 0.24-0.64s0.402-0.268 0.647-0.268c0.264 0 0.472 0.005 6.451 3.153 0.092 0.028 0.225 0.069 0.349 0.099l0.001-12.016c0.003-0.175-0.004-0.292-0.015-0.371-0.066 0.020-0.158 0.053-0.28 0.112-6.138 3.283-6.215 3.284-6.505 3.284-0.247 0-0.482-0.102-0.651-0.283s-0.253-0.424-0.236-0.669l0.13-1.92c-0.015-0.724-0.605-1.421-1.303-1.421h-16.505zM4 20.244c-0.246 0-0.444-0.199-0.444-0.444v-2.259c0-0.822 0.719-1.922 1.611-1.922h3.775c0.246 0 0.444 0.199 0.444 0.444s-0.199 0.444-0.444 0.444h-3.775c-0.325 0-0.722 0.619-0.722 1.033v2.259c0 0.246-0.199 0.445-0.444 0.445zM11.164 16.508h-0.444c-0.246 0-0.444-0.199-0.444-0.444s0.199-0.444 0.444-0.444h0.444c0.246 0 0.444 0.199 0.444 0.444s-0.199 0.444-0.444 0.444z"></path>
</symbol>
<symbol id="icon-instagram" viewBox="0 0 32 32">
<title>instagram</title>
<path d="M16 2.881c4.275 0 4.781 0.019 6.462 0.094 1.563 0.069 2.406 0.331 2.969 0.55 0.744 0.288 1.281 0.638 1.837 1.194 0.563 0.563 0.906 1.094 1.2 1.838 0.219 0.563 0.481 1.412 0.55 2.969 0.075 1.688 0.094 2.194 0.094 6.463s-0.019 4.781-0.094 6.463c-0.069 1.563-0.331 2.406-0.55 2.969-0.288 0.744-0.637 1.281-1.194 1.837-0.563 0.563-1.094 0.906-1.837 1.2-0.563 0.219-1.413 0.481-2.969 0.55-1.688 0.075-2.194 0.094-6.463 0.094s-4.781-0.019-6.463-0.094c-1.563-0.069-2.406-0.331-2.969-0.55-0.744-0.288-1.281-0.637-1.838-1.194-0.563-0.563-0.906-1.094-1.2-1.837-0.219-0.563-0.481-1.413-0.55-2.969-0.075-1.688-0.094-2.194-0.094-6.463s0.019-4.781 0.094-6.463c0.069-1.563 0.331-2.406 0.55-2.969 0.288-0.744 0.638-1.281 1.194-1.838 0.563-0.563 1.094-0.906 1.838-1.2 0.563-0.219 1.412-0.481 2.969-0.55 1.681-0.075 2.188-0.094 6.463-0.094zM16 0c-4.344 0-4.887 0.019-6.594 0.094-1.7 0.075-2.869 0.35-3.881 0.744-1.056 0.412-1.95 0.956-2.837 1.85-0.894 0.888-1.438 1.781-1.85 2.831-0.394 1.019-0.669 2.181-0.744 3.881-0.075 1.713-0.094 2.256-0.094 6.6s0.019 4.887 0.094 6.594c0.075 1.7 0.35 2.869 0.744 3.881 0.413 1.056 0.956 1.95 1.85 2.837 0.887 0.887 1.781 1.438 2.831 1.844 1.019 0.394 2.181 0.669 3.881 0.744 1.706 0.075 2.25 0.094 6.594 0.094s4.888-0.019 6.594-0.094c1.7-0.075 2.869-0.35 3.881-0.744 1.050-0.406 1.944-0.956 2.831-1.844s1.438-1.781 1.844-2.831c0.394-1.019 0.669-2.181 0.744-3.881 0.075-1.706 0.094-2.25 0.094-6.594s-0.019-4.887-0.094-6.594c-0.075-1.7-0.35-2.869-0.744-3.881-0.394-1.063-0.938-1.956-1.831-2.844-0.887-0.887-1.781-1.438-2.831-1.844-1.019-0.394-2.181-0.669-3.881-0.744-1.712-0.081-2.256-0.1-6.6-0.1v0z"></path>
<path d="M16 7.781c-4.537 0-8.219 3.681-8.219 8.219s3.681 8.219 8.219 8.219 8.219-3.681 8.219-8.219c0-4.537-3.681-8.219-8.219-8.219zM16 21.331c-2.944 0-5.331-2.387-5.331-5.331s2.387-5.331 5.331-5.331c2.944 0 5.331 2.387 5.331 5.331s-2.387 5.331-5.331 5.331z"></path>
<path d="M26.462 7.456c0 1.060-0.859 1.919-1.919 1.919s-1.919-0.859-1.919-1.919c0-1.060 0.859-1.919 1.919-1.919s1.919 0.859 1.919 1.919z"></path>
</symbol>
</defs>
</svg>
