<svg aria-hidden="true" style="position: absolute; width: 0; height: 0; overflow: hidden;" version="1.1" xmlns="http://www.w3.org/2000/svg" xmlns:xlink="http://www.w3.org/1999/xlink">
<defs>
<symbol id="icon-camera" viewBox="0 0 20 20">
<title>camera</title>
<path d="M10 8c-1.657 0-3 1.344-3 3s1.343 3 3 3c1.656 0 3-1.344 3-3s-1.344-3-3-3zM18 5h-2.4c-0.33 0-0.686-0.256-0.789-0.57l-0.621-1.861c-0.105-0.313-0.459-0.569-0.79-0.569h-6.8c-0.33 0-0.686 0.256-0.789 0.568l-0.622 1.862c-0.104 0.314-0.459 0.57-0.789 0.57h-2.4c-1.1 0-2 0.9-2 2v9c0 1.1 0.9 2 2 2h16c1.1 0 2-0.9 2-2v-9c0-1.1-0.9-2-2-2zM10 16c-2.762 0-5-2.238-5-5s2.238-5 5-5c2.761 0 5 2.238 5 5s-2.239 5-5 5zM17.5 8.2c-0.387 0-0.7-0.314-0.7-0.701 0-0.385 0.313-0.7 0.7-0.7s0.7 0.314 0.7 0.7c0 0.387-0.313 0.701-0.7 0.701z"></path>
</symbol>
<symbol id="icon-chat" viewBox="0 0 20 20">
<title>chat</title>
<path d="M5.8 12.2v-6.2h-3.8c-1.1 0-2 0.9-2 2v6c0 1.1 0.9 2 2 2h1v3l3-3h5c1.1 0 2-0.9 2-2v-1.82c-0.064 0.014-0.132 0.021-0.2 0.021l-7-0.001zM18 1h-9c-1.1 0-2 0.9-2 2v8h7l3 3v-3h1c1.1 0 2-0.899 2-2v-6c0-1.1-0.9-2-2-2z"></path>
</symbol>
<symbol id="icon-phone" viewBox="0 0 20 20">
<title>phone</title>
<path d="M11.229 11.229c-1.583 1.582-3.417 3.096-4.142 2.371-1.037-1.037-1.677-1.941-3.965-0.102-2.287 1.838-0.53 3.064 0.475 4.068 1.16 1.16 5.484 0.062 9.758-4.211 4.273-4.274 5.368-8.598 4.207-9.758-1.005-1.006-2.225-2.762-4.063-0.475s-0.936 2.927 0.103 3.965c0.722 0.725-0.791 2.559-2.373 4.142z"></path>
</symbol>
<symbol id="icon-user" viewBox="0 0 20 20">
<title>user</title>
<path d="M7.725 2.146c-1.016 0.756-1.289 1.953-1.239 2.59 0.064 0.779 0.222 1.793 0.222 1.793s-0.313 0.17-0.313 0.854c0.109 1.717 0.683 0.976 0.801 1.729 0.284 1.814 0.933 1.491 0.933 2.481 0 1.649-0.68 2.42-2.803 3.334-2.13 0.918-4.326 2.073-4.326 4.073v1h18v-1c0-2-2.197-3.155-4.328-4.072-2.123-0.914-2.801-1.684-2.801-3.334 0-0.99 0.647-0.667 0.932-2.481 0.119-0.753 0.692-0.012 0.803-1.729 0-0.684-0.314-0.854-0.314-0.854s0.158-1.014 0.221-1.793c0.065-0.817-0.398-2.561-2.3-3.096-0.333-0.34-0.558-0.881 0.466-1.424-2.24-0.105-2.761 1.067-3.954 1.929z"></path>
</symbol>
<symbol id="icon-calendar" viewBox="0 0 20 20">
<title>calendar</title>
<path d="M17 3h-1v2h-3v-2h-6v2h-3v-2h-1c-1.101 0-2 0.9-2 2v12c0 1.1 0.899 2 2 2h14c1.1 0 2-0.9 2-2v-12c0-1.1-0.9-2-2-2zM17 17h-14v-8h14v8zM6.5 1h-2v3.5h2v-3.5zM15.5 1h-2v3.5h2v-3.5z"></path>
</symbol>
<symbol id="icon-edit" viewBox="0 0 20 20">
<title>edit</title>
<path d="M17.561 2.439c-1.442-1.443-2.525-1.227-2.525-1.227l-12.826 12.825-1.010 4.762 4.763-1.010 12.826-12.823c-0.001 0 0.216-1.083-1.228-2.527zM5.68 17.217l-1.624 0.35c-0.156-0.293-0.345-0.586-0.69-0.932s-0.639-0.533-0.932-0.691l0.35-1.623 0.47-0.469c0 0 0.883 0.018 1.881 1.016 0.997 0.996 1.016 1.881 1.016 1.881l-0.471 0.468z"></path>
</symbol>
<symbol id="icon-thumbs-up" viewBox="0 0 25 28">
<title>thumbs-up</title>
<path d="M4 21c0-0.547-0.453-1-1-1-0.562 0-1 0.453-1 1 0 0.562 0.438 1 1 1 0.547 0 1-0.438 1-1zM6.5 13v10c0 0.547-0.453 1-1 1h-4.5c-0.547 0-1-0.453-1-1v-10c0-0.547 0.453-1 1-1h4.5c0.547 0 1 0.453 1 1zM25 13c0 0.828-0.328 1.719-0.859 2.328 0.172 0.5 0.234 0.969 0.234 1.188 0.031 0.781-0.203 1.516-0.672 2.141 0.172 0.578 0.172 1.203 0 1.828-0.156 0.578-0.453 1.094-0.844 1.469 0.094 1.172-0.172 2.125-0.766 2.828-0.672 0.797-1.703 1.203-3.078 1.219h-2.016c-2.234 0-4.344-0.734-6.031-1.313-0.984-0.344-1.922-0.672-2.469-0.688-0.531-0.016-1-0.453-1-1v-10.016c0-0.516 0.438-0.953 0.953-1 0.578-0.047 2.078-1.906 2.766-2.812 0.562-0.719 1.094-1.391 1.578-1.875 0.609-0.609 0.781-1.547 0.969-2.453 0.172-0.922 0.359-1.891 1.031-2.547 0.187-0.187 0.438-0.297 0.703-0.297 3.5 0 3.5 2.797 3.5 4 0 1.281-0.453 2.188-0.875 3-0.172 0.344-0.328 0.5-0.453 1h4.328c1.625 0 3 1.375 3 3z"></path>
</symbol>
<symbol id="icon-facebook" viewBox="0 0 16 28">
<title>facebook</title>
<path d="M14.984 0.187v4.125h-2.453c-1.922 0-2.281 0.922-2.281 2.25v2.953h4.578l-0.609 4.625h-3.969v11.859h-4.781v-11.859h-3.984v-4.625h3.984v-3.406c0-3.953 2.422-6.109 5.953-6.109 1.687 0 3.141 0.125 3.563 0.187z"></path>
</symbol>
<symbol id="icon-envelope" viewBox="0 0 28 28">
<title>envelope</title>
<path d="M28 11.094v12.406c0 1.375-1.125 2.5-2.5 2.5h-23c-1.375 0-2.5-1.125-2.5-2.5v-12.406c0.469 0.516 1 0.969 1.578 1.359 2.594 1.766 5.219 3.531 7.766 5.391 1.313 0.969 2.938 2.156 4.641 2.156h0.031c1.703 0 3.328-1.188 4.641-2.156 2.547-1.844 5.172-3.625 7.781-5.391 0.562-0.391 1.094-0.844 1.563-1.359zM28 6.5c0 1.75-1.297 3.328-2.672 4.281-2.438 1.687-4.891 3.375-7.313 5.078-1.016 0.703-2.734 2.141-4 2.141h-0.031c-1.266 0-2.984-1.437-4-2.141-2.422-1.703-4.875-3.391-7.297-5.078-1.109-0.75-2.688-2.516-2.688-3.938 0-1.531 0.828-2.844 2.5-2.844h23c1.359 0 2.5 1.125 2.5 2.5z"></path>
</symbol>
<symbol id="icon-youtube" viewBox="0 0 24 28">
<title>youtube</title>
<path d="M15.172 19.437v3.297c0 0.703-0.203 1.047-0.609 1.047-0.234 0-0.469-0.109-0.703-0.344v-4.703c0.234-0.234 0.469-0.344 0.703-0.344 0.406 0 0.609 0.359 0.609 1.047zM20.453 19.453v0.719h-1.406v-0.719c0-0.703 0.234-1.062 0.703-1.062s0.703 0.359 0.703 1.062zM5.359 16.047h1.672v-1.469h-4.875v1.469h1.641v8.891h1.563v-8.891zM9.859 24.938h1.391v-7.719h-1.391v5.906c-0.313 0.438-0.609 0.656-0.891 0.656-0.187 0-0.297-0.109-0.328-0.328-0.016-0.047-0.016-0.219-0.016-0.547v-5.688h-1.391v6.109c0 0.547 0.047 0.906 0.125 1.141 0.125 0.391 0.453 0.578 0.906 0.578 0.5 0 1.031-0.313 1.594-0.953v0.844zM16.562 22.625v-3.078c0-0.719-0.031-1.234-0.141-1.547-0.172-0.578-0.562-0.875-1.109-0.875-0.516 0-1 0.281-1.453 0.844v-3.391h-1.391v10.359h1.391v-0.75c0.469 0.578 0.953 0.859 1.453 0.859 0.547 0 0.938-0.297 1.109-0.859 0.109-0.328 0.141-0.844 0.141-1.563zM21.844 22.469v-0.203h-1.422c0 0.562-0.016 0.875-0.031 0.953-0.078 0.375-0.281 0.562-0.625 0.562-0.484 0-0.719-0.359-0.719-1.078v-1.359h2.797v-1.609c0-0.828-0.141-1.422-0.422-1.813-0.406-0.531-0.953-0.797-1.656-0.797-0.719 0-1.266 0.266-1.672 0.797-0.297 0.391-0.438 0.984-0.438 1.813v2.703c0 0.828 0.156 1.437 0.453 1.813 0.406 0.531 0.953 0.797 1.687 0.797s1.313-0.281 1.687-0.828c0.172-0.25 0.297-0.531 0.328-0.844 0.031-0.141 0.031-0.453 0.031-0.906zM12.344 8.203v-3.281c0-0.719-0.203-1.078-0.672-1.078-0.453 0-0.672 0.359-0.672 1.078v3.281c0 0.719 0.219 1.094 0.672 1.094 0.469 0 0.672-0.375 0.672-1.094zM23.578 19.938c0 1.797-0.016 3.719-0.406 5.469-0.297 1.234-1.297 2.141-2.5 2.266-2.875 0.328-5.781 0.328-8.672 0.328s-5.797 0-8.672-0.328c-1.203-0.125-2.219-1.031-2.5-2.266-0.406-1.75-0.406-3.672-0.406-5.469v0c0-1.813 0.016-3.719 0.406-5.469 0.297-1.234 1.297-2.141 2.516-2.281 2.859-0.313 5.766-0.313 8.656-0.313s5.797 0 8.672 0.313c1.203 0.141 2.219 1.047 2.5 2.281 0.406 1.75 0.406 3.656 0.406 5.469zM7.984 0h1.594l-1.891 6.234v4.234h-1.563v-4.234c-0.141-0.766-0.453-1.859-0.953-3.313-0.344-0.969-0.688-1.953-1.016-2.922h1.656l1.109 4.109zM13.766 5.203v2.734c0 0.828-0.141 1.453-0.438 1.844-0.391 0.531-0.938 0.797-1.656 0.797-0.703 0-1.25-0.266-1.641-0.797-0.297-0.406-0.438-1.016-0.438-1.844v-2.734c0-0.828 0.141-1.437 0.438-1.828 0.391-0.531 0.938-0.797 1.641-0.797 0.719 0 1.266 0.266 1.656 0.797 0.297 0.391 0.438 1 0.438 1.828zM19 2.672v7.797h-1.422v-0.859c-0.562 0.656-1.094 0.969-1.609 0.969-0.453 0-0.781-0.187-0.922-0.578-0.078-0.234-0.125-0.609-0.125-1.172v-6.156h1.422v5.734c0 0.328 0 0.516 0.016 0.547 0.031 0.219 0.141 0.344 0.328 0.344 0.281 0 0.578-0.219 0.891-0.672v-5.953h1.422z"></path>
</symbol>
<symbol id="icon-paw" viewBox="0 0 26 28">
<title>paw</title>
<path d="M12.187 7.375c0 1.75-0.906 3.828-2.922 3.828-2.531 0-4.062-3.187-4.062-5.375 0-1.75 0.906-3.828 2.922-3.828 2.547 0 4.062 3.187 4.062 5.375zM6.844 14.922c0 1.516-0.797 3.094-2.516 3.094-2.5 0-4.328-3.063-4.328-5.328 0-1.516 0.812-3.109 2.516-3.109 2.5 0 4.328 3.078 4.328 5.344zM13 14.5c3.828 0 9 5.516 9 9.203 0 1.984-1.625 2.297-3.219 2.297-2.094 0-3.781-1.406-5.781-1.406-2.094 0-3.875 1.391-6.141 1.391-1.516 0-2.859-0.516-2.859-2.281 0-3.703 5.172-9.203 9-9.203zM16.734 11.203c-2.016 0-2.922-2.078-2.922-3.828 0-2.188 1.516-5.375 4.062-5.375 2.016 0 2.922 2.078 2.922 3.828 0 2.188-1.531 5.375-4.062 5.375zM23.484 9.578c1.703 0 2.516 1.594 2.516 3.109 0 2.266-1.828 5.328-4.328 5.328-1.719 0-2.516-1.578-2.516-3.094 0-2.266 1.828-5.344 4.328-5.344z"></path>
</symbol>
<symbol id="icon-chat73" viewBox="0 0 32 32">
<title>chat73</title>
<path d="M12.386 30.333c-0.143 0-0.286-0.035-0.416-0.104-0.298-0.158-0.481-0.472-0.472-0.808l0.087-3.31h-2.229c-1.699 0-2.912-1.4-2.912-3.12v-11.616c0-1.677 1.213-3.041 2.912-3.041h17.839c1.699 0 3.25 1.364 3.25 3.041v11.616c0 1.72-1.551 3.12-3.25 3.12h-8.633l-5.657 4.056c-0.154 0.111-0.336 0.167-0.518 0.167zM9.356 10.111c-0.731 0-1.134 0.555-1.134 1.264v11.616c0 0.728 0.428 1.343 1.134 1.343h3.141c0.24 0 0.47 0.096 0.637 0.268s0.258 0.404 0.252 0.644l-0.064 2.434 4.435-3.18c0.151-0.108 0.332-0.167 0.518-0.167h8.919c0.706 0 1.472-0.615 1.472-1.343v-11.616c0-0.708-0.742-1.264-1.472-1.264h-17.838zM2.969 18.734c-0.21 0-0.335-0.074-0.504-0.224-0.65-0.576-0.909-1.332-0.909-2.186v-11.616c0-1.677 1.213-3.041 2.912-3.041h17.839c1.699 0 3.25 1.364 3.25 3.041v0.514c0 0.491-0.398 0.889-0.889 0.889s-0.889-0.398-0.889-0.889v-0.514c0-0.708-0.742-1.264-1.472-1.264h-17.839c-0.731 0-1.134 0.555-1.134 1.264v11.616c0 0.34 0.044 0.62 0.31 0.855 0.368 0.325 0.36 0.888 0.034 1.255-0.176 0.198-0.463 0.3-0.708 0.3zM15.164 14.111h-3.556c-0.246 0-0.444-0.199-0.444-0.444s0.199-0.444 0.444-0.444h3.556c0.246 0 0.444 0.199 0.444 0.444s-0.199 0.444-0.444 0.444zM21.386 14.111h-4.444c-0.246 0-0.444-0.199-0.444-0.444s0.199-0.444 0.444-0.444h4.444c0.246 0 0.444 0.199 0.444 0.444s-0.199 0.444-0.444 0.444zM24.942 14.111h-1.778c-0.246 0-0.444-0.199-0.444-0.444s0.199-0.444 0.444-0.444h1.778c0.246 0 0.444 0.199 0.444 0.444s-0.199 0.444-0.444 0.444zM13.386 16.333h-1.778c-0.246 0-0.444-0.199-0.444-0.444s0.199-0.444 0.444-0.444h1.778c0.246 0 0.444 0.199 0.444 0.444s-0.199 0.444-0.444 0.444zM18.72 16.333h-3.556c-0.246 0-0.444-0.199-0.444-0.444s0.199-0.444 0.444-0.444h3.556c0.246 0 0.444 0.199 0.444 0.444s-0.199 0.444-0.444 0.444zM24.942 16.333h-4.444c-0.246 0-0.444-0.199-0.444-0.444s0.199-0.444 0.444-0.444h4.444c0.246 0 0.444 0.199 0.444 0.444s-0.199 0.444-0.444 0.444zM16.053 19h-4.444c-0.246 0-0.444-0.199-0.444-0.444s0.199-0.444 0.444-0.444h4.444c0.246 0 0.444 0.199 0.444 0.444s-0.199 0.444-0.444 0.444zM22.275 19h-4.444c-0.246 0-0.444-0.199-0.444-0.444s0.199-0.444 0.444-0.444h4.444c0.246 0 0.444 0.199 0.444 0.444s-0.199 0.444-0.444 0.444zM24.942 19h-0.889c-0.246 0-0.444-0.199-0.444-0.444s0.199-0.444 0.444-0.444h0.889c0.246 0 0.444 0.199 0.444 0.444s-0.199 0.444-0.444 0.444zM13.386 21.222h-1.778c-0.246 0-0.444-0.199-0.444-0.444s0.199-0.444 0.444-0.444h1.778c0.246 0 0.444 0.199 0.444 0.444s-0.199 0.444-0.444 0.444zM18.275 21.222h-3.111c-0.246 0-0.444-0.199-0.444-0.444s0.199-0.444 0.444-0.444h3.111c0.246 0 0.444 0.199 0.444 0.444s-0.199 0.444-0.444 0.444z"></path>
</symbol>
<symbol id="icon-diamond37" viewBox="0 0 32 32">
<title>diamond37</title>
<path d="M16.001 30.196c-0.682 0-1.332-0.344-1.782-0.944l-12.445-16.59c-0.812-1.083-0.852-2.807-0.092-3.927l3.575-5.17c0.68-1.001 2.19-1.76 3.508-1.76h14.465c1.319 0 2.829 0.758 3.513 1.763l3.566 5.194c0.771 1.133 0.732 2.81-0.088 3.904l-12.446 16.591c-0.448 0.597-1.094 0.939-1.773 0.939zM8.765 3.582c-0.73 0-1.684 0.461-2.042 0.988l-3.575 5.17c-0.332 0.49-0.311 1.377 0.048 1.855l12.446 16.59c0.223 0.297 0.489 0.301 0.711 0.006l12.446-16.592c0.36-0.481 0.38-1.338 0.043-1.834l-3.566-5.194c-0.36-0.528-1.314-0.988-2.045-0.988h-14.465zM30.108 11.138h-27.111c-0.245 0-0.444-0.199-0.444-0.444s0.199-0.444 0.444-0.444h27.111c0.246 0 0.444 0.199 0.444 0.444s-0.199 0.444-0.444 0.444zM15.293 10.968c-0.107 0-0.214-0.038-0.3-0.116l-8.212-7.496c-0.181-0.165-0.194-0.447-0.028-0.628s0.447-0.195 0.628-0.028l8.212 7.496c0.181 0.166 0.194 0.447 0.028 0.628-0.088 0.096-0.208 0.144-0.329 0.144zM16.415 10.968c-0.12 0-0.241-0.048-0.328-0.145-0.165-0.18-0.152-0.462 0.028-0.628l4.367-3.986c0.181-0.166 0.463-0.152 0.628 0.028s0.152 0.463-0.028 0.628l-4.367 3.986c-0.085 0.078-0.193 0.116-0.3 0.116zM21.924 5.94c-0.12 0-0.24-0.048-0.328-0.144-0.166-0.181-0.153-0.463 0.028-0.628l0.309-0.283c0.181-0.165 0.462-0.152 0.628 0.028s0.153 0.462-0.028 0.628l-0.309 0.283c-0.085 0.078-0.192 0.116-0.3 0.116zM23.303 4.681c-0.12 0-0.241-0.048-0.328-0.145-0.165-0.181-0.153-0.462 0.028-0.628l1.324-1.209c0.182-0.166 0.463-0.153 0.628 0.028s0.153 0.462-0.028 0.628l-1.324 1.209c-0.086 0.078-0.193 0.116-0.3 0.116zM9.513 12.476c-0.178 0-0.345-0.107-0.414-0.282l-0.534-1.338c-0.089-0.228 0.024-0.486 0.252-0.576 0.23-0.089 0.487 0.024 0.576 0.252l0.534 1.338c0.089 0.228-0.024 0.486-0.252 0.576-0.053 0.021-0.108 0.031-0.162 0.031zM10.102 13.979c-0.177 0-0.345-0.107-0.414-0.282l-0.156-0.398c-0.089-0.228 0.024-0.486 0.252-0.576 0.229-0.090 0.487 0.024 0.576 0.251l0.156 0.398c0.090 0.229-0.023 0.487-0.252 0.576-0.053 0.021-0.108 0.031-0.162 0.031zM15.997 29.042c-0.177 0-0.345-0.107-0.414-0.282l-5.296-13.532c-0.089-0.228 0.023-0.486 0.252-0.576s0.487 0.024 0.576 0.252l5.296 13.532c0.089 0.228-0.023 0.486-0.252 0.576-0.054 0.021-0.108 0.031-0.162 0.031zM15.997 29.042c-0.053 0-0.108-0.009-0.16-0.029-0.229-0.088-0.343-0.346-0.254-0.576l6.864-17.709c0.089-0.229 0.346-0.343 0.575-0.254s0.343 0.346 0.254 0.576l-6.864 17.709c-0.069 0.176-0.236 0.284-0.415 0.284z"></path>
</symbol>
<symbol id="icon-notebook69" viewBox="0 0 32 32">
<title>notebook69</title>
<path d="M27.556 27.586c0 1.701-1.38 3.080-3.081 3.080h-16.949c-1.701 0-3.081-1.379-3.081-3.080v-20.505c0-1.701 1.38-3.081 3.081-3.081h16.95c1.701 0 3.080 1.38 3.080 3.081v20.505zM25.778 7.081c0-0.72-0.583-1.303-1.303-1.303h-16.949c-0.72 0-1.303 0.584-1.303 1.303v20.505c0 0.72 0.584 1.303 1.303 1.303h16.95c0.72 0 1.303-0.583 1.303-1.303v-20.505zM22.454 27.556h-7.29c-0.246 0-0.444-0.199-0.444-0.444s0.199-0.444 0.444-0.444h7.29c0.702 0 1.102-0.84 1.102-2.14v-1.415c0-0.246 0.199-0.444 0.444-0.444s0.444 0.199 0.444 0.444v1.415c0 1.84-0.749 3.029-1.991 3.029zM24.106 21.311c-0.116 0-0.231-0.044-0.316-0.128-0.080-0.081-0.129-0.196-0.129-0.316 0-0.116 0.049-0.231 0.129-0.311 0.169-0.165 0.462-0.169 0.631-0.004 0.080 0.084 0.129 0.2 0.129 0.315s-0.048 0.231-0.129 0.316c-0.084 0.084-0.2 0.128-0.316 0.128zM8.889 8.889c-0.491 0-0.889-0.398-0.889-0.889v-5.778c0-0.491 0.398-0.889 0.889-0.889s0.889 0.398 0.889 0.889v5.778c0 0.491-0.398 0.889-0.889 0.889zM13.778 8.889c-0.491 0-0.889-0.398-0.889-0.889v-5.778c0-0.491 0.398-0.889 0.889-0.889s0.889 0.398 0.889 0.889v5.778c0 0.491-0.398 0.889-0.889 0.889zM18.667 8.889c-0.491 0-0.889-0.398-0.889-0.889v-5.778c0-0.491 0.398-0.889 0.889-0.889s0.889 0.398 0.889 0.889v5.778c0 0.491-0.398 0.889-0.889 0.889zM23.556 8.889c-0.491 0-0.889-0.398-0.889-0.889v-5.778c0-0.491 0.398-0.889 0.889-0.889s0.889 0.398 0.889 0.889v5.778c0 0.491-0.398 0.889-0.889 0.889zM26.72 12.444h-21.333c-0.246 0-0.444-0.199-0.444-0.444s0.199-0.444 0.444-0.444h21.333c0.245 0 0.444 0.199 0.444 0.444s-0.199 0.444-0.444 0.444z"></path>
</symbol>
<symbol id="icon-pencil107" viewBox="0 0 32 32">
<title>pencil107</title>
<path d="M2.86 30.188c-0.233 0-0.46-0.092-0.628-0.26l-0.193-0.193c-0.22-0.22-0.308-0.537-0.235-0.839 0.269-1.107 1.683-6.698 3.059-8.074l17.832-17.832c0.76-0.76 1.782-1.179 2.877-1.179 1.159 0 2.258 0.46 3.094 1.297l0.193 0.193c0.796 0.795 1.289 1.896 1.356 3.019 0.070 1.194-0.326 2.286-1.115 3.075l-17.833 17.832c-1.383 1.383-7.086 2.693-8.215 2.941-0.064 0.015-0.128 0.021-0.191 0.021zM25.572 3.589c-0.62 0-1.196 0.233-1.62 0.658l-17.832 17.832c-0.647 0.647-1.632 3.635-2.292 6.082 2.492-0.613 5.538-1.548 6.182-2.192l17.833-17.832c0.425-0.425 0.637-1.034 0.597-1.713-0.041-0.695-0.346-1.375-0.838-1.866l-0.193-0.193c-0.5-0.5-1.153-0.776-1.837-0.776zM27.092 9.854c-0.114 0-0.228-0.044-0.314-0.13l-4.78-4.779c-0.174-0.174-0.174-0.455 0-0.628s0.455-0.174 0.628 0l4.78 4.78c0.174 0.174 0.174 0.455 0 0.628-0.087 0.087-0.2 0.13-0.314 0.13zM10.914 26.032c-0.114 0-0.228-0.044-0.314-0.13l-4.78-4.78c-0.174-0.174-0.174-0.455 0-0.628s0.455-0.174 0.628 0l4.78 4.78c0.174 0.174 0.174 0.455 0 0.628-0.087 0.087-0.2 0.13-0.314 0.13zM7.418 28.315c-0.114 0-0.228-0.044-0.314-0.13l-3.062-3.063c-0.174-0.174-0.174-0.455 0-0.628s0.455-0.174 0.628 0l3.062 3.062c0.174 0.174 0.174 0.455 0 0.628-0.087 0.087-0.2 0.131-0.314 0.131zM7.972 23.091c-0.114 0-0.228-0.044-0.314-0.13-0.174-0.174-0.174-0.455 0-0.628l13.237-13.236c0.174-0.174 0.455-0.174 0.628 0s0.174 0.455 0 0.628l-13.237 13.236c-0.087 0.087-0.2 0.13-0.314 0.13zM22.496 8.567c-0.114 0-0.228-0.044-0.314-0.13-0.174-0.174-0.174-0.455 0-0.628l1.655-1.655c0.174-0.174 0.455-0.174 0.628 0s0.174 0.455 0 0.628l-1.655 1.655c-0.087 0.087-0.2 0.13-0.314 0.13zM9.443 24.561c-0.114 0-0.228-0.044-0.314-0.13-0.174-0.174-0.174-0.455 0-0.628l16.178-16.177c0.174-0.174 0.455-0.174 0.628 0s0.174 0.455 0 0.628l-16.178 16.177c-0.087 0.087-0.201 0.13-0.314 0.13z"></path>
</symbol>
<symbol id="icon-photo208" viewBox="0 0 32 32">
<title>photo208</title>
<path d="M16.053 23.879c-3.492 0-6.333-2.841-6.333-6.333s2.841-6.333 6.333-6.333 6.333 2.841 6.333 6.333c0 3.492-2.841 6.333-6.333 6.333zM16.053 12.101c-3.002 0-5.444 2.442-5.444 5.444s2.442 5.444 5.444 5.444 5.444-2.443 5.444-5.444c0-3.002-2.442-5.444-5.444-5.444zM12.793 16.274c-0.077 0-0.156-0.020-0.227-0.063-0.211-0.125-0.28-0.398-0.156-0.609 0.871-1.466 2.469-2.376 4.173-2.376 0.245 0 0.444 0.199 0.444 0.444s-0.199 0.444-0.444 0.444c-1.392 0-2.697 0.744-3.408 1.941-0.083 0.14-0.231 0.218-0.382 0.218zM12.179 18.368c-0.246 0-0.444-0.199-0.444-0.444 0-0.391 0.046-0.607 0.127-0.954 0.056-0.24 0.293-0.387 0.534-0.332 0.239 0.056 0.388 0.294 0.332 0.534-0.072 0.308-0.104 0.456-0.104 0.752 0 0.245-0.199 0.444-0.444 0.444zM27.417 28.444h-22.728c-1.76 0-3.134-1.428-3.134-3.091v-13.839c0-1.648 1.343-3.070 3.134-3.070h2.146l1.536-3.075c0.017-0.034 0.036-0.060 0.058-0.092 1.056-1.573 2.141-1.716 3.163-1.716l0.596-0.006h7.47c1.677 0 2.899 0.559 3.734 1.679 0.022 0.029 0.042 0.052 0.060 0.084l1.784 3.126h2.18c1.656 0 3.028 1.308 3.028 3.070v13.839c0 1.779-1.398 3.091-3.028 3.091zM4.689 10.222c-0.705 0-1.356 0.581-1.356 1.292v13.839c0 0.677 0.586 1.313 1.356 1.313h22.728c0.743 0 1.25-0.667 1.25-1.313v-13.839c0-0.611-0.453-1.292-1.25-1.292h-2.697c-0.32 0-0.615-0.157-0.772-0.435l-2.011-3.524c-0.493-0.636-1.178-0.904-2.278-0.904l-8.066-0.003c-0.692 0-1.084 0.040-1.656 0.872l-1.754 3.515c-0.151 0.303-0.46 0.479-0.797 0.479h-2.697zM29.386 15.111h-8c-0.246 0-0.444-0.199-0.444-0.444s0.199-0.444 0.444-0.444h8c0.245 0 0.444 0.199 0.444 0.444s-0.199 0.444-0.444 0.444zM10.72 15.111h-8.444c-0.246 0-0.444-0.199-0.444-0.444s0.199-0.444 0.444-0.444h8.444c0.245 0 0.444 0.199 0.444 0.444s-0.199 0.444-0.444 0.444zM23.164 21.333h-2.222c-0.246 0-0.444-0.199-0.444-0.444s0.199-0.444 0.444-0.444h2.222c0.245 0 0.444 0.199 0.444 0.444s-0.199 0.444-0.444 0.444zM24.942 21.333h-0.444c-0.246 0-0.444-0.199-0.444-0.444s0.199-0.444 0.444-0.444h0.444c0.245 0 0.444 0.199 0.444 0.444s-0.199 0.444-0.444 0.444zM28.942 21.333h-2.667c-0.246 0-0.444-0.199-0.444-0.444s0.199-0.444 0.444-0.444h2.667c0.245 0 0.444 0.199 0.444 0.444s-0.199 0.444-0.444 0.444zM10.72 21.333h-8.444c-0.246 0-0.444-0.199-0.444-0.444s0.199-0.444 0.444-0.444h8.444c0.245 0 0.444 0.199 0.444 0.444s-0.199 0.444-0.444 0.444z"></path>
</symbol>
<symbol id="icon-placeholder34" viewBox="0 0 32 32">
<title>placeholder34</title>
<path d="M16.053 15.248c-1.091 0-2.117-0.425-2.889-1.196-1.592-1.592-1.592-4.182 0-5.774 0.771-0.771 1.797-1.196 2.888-1.196v0c1.091 0 2.117 0.425 2.888 1.196 1.592 1.592 1.592 4.182 0 5.774-0.771 0.771-1.797 1.196-2.887 1.196zM16.052 8.859c-0.616 0-1.195 0.24-1.631 0.676-0.899 0.899-0.899 2.361 0 3.26 0.436 0.435 1.016 0.676 1.632 0.676s1.195-0.24 1.63-0.676c0.898-0.899 0.898-2.361 0-3.26-0.436-0.436-1.015-0.676-1.631-0.676zM21.932 10.246c-0.201 0-0.384-0.138-0.432-0.343-0.033-0.141-0.056-0.244-0.072-0.324-0.029-0.136-0.037-0.17-0.058-0.218-0.096-0.226 0.008-0.487 0.232-0.584 0.225-0.095 0.487 0.007 0.584 0.232 0.056 0.129 0.076 0.225 0.11 0.383 0.016 0.075 0.037 0.172 0.068 0.306 0.056 0.239-0.091 0.478-0.331 0.535-0.033 0.008-0.068 0.012-0.102 0.012zM21.128 8.335c-0.148 0-0.292-0.073-0.376-0.206-0.92-1.451-2.422-2.416-4.12-2.647-0.244-0.033-0.414-0.257-0.381-0.5s0.256-0.413 0.501-0.38c1.959 0.268 3.691 1.38 4.752 3.051 0.131 0.208 0.069 0.482-0.137 0.614-0.075 0.047-0.156 0.069-0.238 0.069zM16.044 30.55c-0.743 0-2.16-0.338-3.308-2.6-1.33-2.62-6.28-13.523-6.28-16.957 0-5.262 4.281-9.544 9.544-9.544s9.544 4.281 9.544 9.544c0 3.396-4.937 14.438-6.199 16.953-0.842 1.679-2.014 2.604-3.301 2.604zM16 3.228c-4.282 0-7.766 3.484-7.766 7.766 0 2.698 4.321 12.67 6.088 16.152 0.524 1.034 1.152 1.627 1.722 1.627 0.563 0 1.203-0.607 1.712-1.622 1.545-3.080 6.010-13.418 6.010-16.156 0-4.282-3.484-7.766-7.766-7.766z"></path>
</symbol>
<symbol id="icon-portfolio36" viewBox="0 0 32 32">
<title>portfolio36</title>
<path d="M30.444 27.142c0 1.701-1.38 3.081-3.081 3.081h-22.727c-1.701-0-3.081-1.38-3.081-3.081v-16.505c0-1.701 1.38-3.081 3.081-3.081h22.728c1.701 0 3.081 1.38 3.081 3.081v16.505zM28.667 10.636c0-0.72-0.584-1.303-1.303-1.303h-22.727c-0.72 0-1.303 0.584-1.303 1.303v16.505c0 0.72 0.584 1.303 1.303 1.303h22.728c0.72 0 1.303-0.584 1.303-1.303v-16.505zM19.778 9.333c-0.491 0-0.889-0.398-0.889-0.889v-3.905c0-0.813-1.055-0.984-1.616-0.984h-3.172c-0.141 0-0.99 0.028-0.99 0.984v3.904c0 0.491-0.398 0.889-0.889 0.889s-0.889-0.398-0.889-0.889v-3.905c0-1.6 0.94-2.762 2.768-2.762h3.172c1.77 0 3.394 1.136 3.394 2.762v3.904c-0 0.491-0.399 0.889-0.889 0.889zM13.169 19.111h-5.778c-0.246 0-0.444-0.199-0.444-0.444s0.199-0.444 0.444-0.444h5.778c0.246 0 0.444 0.199 0.444 0.444s-0.199 0.444-0.444 0.444zM4.724 19.111h-2.222c-0.246 0-0.444-0.199-0.444-0.444s0.199-0.444 0.444-0.444h2.222c0.246 0 0.444 0.199 0.444 0.444s-0.199 0.444-0.444 0.444zM29.614 19.111h-11.111c-0.246 0-0.444-0.199-0.444-0.444s0.199-0.444 0.444-0.444h11.111c0.246 0 0.444 0.199 0.444 0.444s-0.199 0.444-0.444 0.444zM18.889 19.969c0 0.999-0.81 1.809-1.809 1.809h-2.16c-0.999 0-1.809-0.81-1.809-1.809v-2.16c0-0.999 0.81-1.809 1.809-1.809h2.16c0.999 0 1.809 0.81 1.809 1.809v2.16zM18 17.809c0-0.509-0.412-0.92-0.92-0.92h-2.16c-0.508 0-0.92 0.412-0.92 0.92v2.16c0 0.508 0.412 0.92 0.92 0.92h2.16c0.508 0 0.92-0.412 0.92-0.92v-2.16z"></path>
</symbol>
<symbol id="icon-sportive64" viewBox="0 0 32 32">
<title>sportive64</title>
<path d="M16 17.65c-2.949 0-5.348-2.399-5.348-5.348s2.399-5.347 5.348-5.347c2.949 0 5.348 2.399 5.348 5.347s-2.399 5.348-5.348 5.348zM16 7.844c-2.459 0-4.459 2-4.459 4.458s2 4.459 4.459 4.459 4.459-2 4.459-4.459c0-2.458-2-4.458-4.459-4.458zM13.169 12.196c-0.246 0-0.444-0.199-0.444-0.444 0-0.3 0.041-0.477 0.108-0.732 0.063-0.237 0.304-0.38 0.544-0.316 0.237 0.063 0.379 0.306 0.316 0.544-0.055 0.207-0.079 0.306-0.079 0.504 0 0.245-0.199 0.444-0.444 0.444zM16 15.578c-1.415 0-2.664-0.902-3.109-2.244-0.077-0.232 0.049-0.484 0.282-0.562 0.234-0.076 0.485 0.049 0.562 0.282 0.324 0.977 1.235 1.635 2.266 1.635 0.245 0 0.444 0.199 0.444 0.444s-0.2 0.444-0.445 0.444zM18.27 22.766c-0.389 0-0.771-0.113-1.106-0.328l-0.592-0.38c-0.268-0.172-0.876-0.172-1.145 0l-0.591 0.38c-0.336 0.215-0.718 0.328-1.107 0.328-0.752 0.001-1.437-0.423-1.789-1.103l-0.323-0.625c-0.152-0.293-0.622-0.573-0.967-0.573l-0.726 0.034c-0.606 0.026-1.163-0.195-1.567-0.618-0.383-0.401-0.58-0.935-0.553-1.503l0.032-0.7c0.016-0.344-0.268-0.835-0.572-0.992l-0.624-0.323c-0.512-0.264-0.89-0.728-1.036-1.273s-0.052-1.136 0.26-1.622l0.38-0.592c0.184-0.288 0.184-0.856-0.001-1.145l-0.379-0.59c-0.312-0.487-0.407-1.078-0.261-1.622s0.524-1.009 1.036-1.274l0.625-0.323c0.304-0.157 0.588-0.648 0.572-0.991l-0.032-0.702c-0.027-0.566 0.17-1.1 0.553-1.501 0.404-0.424 0.965-0.628 1.567-0.606l0.702 0.046c0 0 0.001 0 0.001 0 0.369 0 0.839-0.291 0.991-0.585l0.322-0.629c0.352-0.682 1.038-1.108 1.789-1.108 0.389 0 0.772 0.112 1.107 0.327l0.591 0.379c0.268 0.172 0.876 0.172 1.144-0l0.592-0.38c0.334-0.214 0.716-0.328 1.106-0.328 0.751 0 1.436 0.423 1.789 1.104l0.323 0.624c0.152 0.295 0.621 0.573 0.966 0.573l0.727-0.034c0.61-0.022 1.163 0.195 1.567 0.619 0.383 0.401 0.58 0.935 0.553 1.502l-0.032 0.7c-0.016 0.344 0.268 0.835 0.572 0.992l0.624 0.322c0.513 0.266 0.891 0.73 1.036 1.275s0.051 1.136-0.26 1.621l-0.38 0.592c-0.185 0.288-0.185 0.856 0 1.145l0.379 0.591c0.312 0.487 0.407 1.078 0.26 1.623s-0.524 1.008-1.036 1.273l-0.623 0.323c-0.305 0.157-0.588 0.648-0.572 0.991l0.032 0.702c0.027 0.567-0.17 1.1-0.553 1.502-0.382 0.4-0.903 0.62-1.467 0.62-0 0-0 0-0 0-0.033 0-0.066 0.071-0.1 0.069l-0.701 0.039c-0 0-0.001 0-0.001 0-0.369 0-0.838 0.206-0.99 0.5l-0.323 0.588c-0.351 0.681-1.036 1.067-1.788 1.067zM16 20.143c0.566 0 1.11 0.148 1.532 0.418l0.592 0.38c0.048 0.031 0.098 0.047 0.147 0.047 0.051 0 0.145-0.018 0.21-0.142l0.323-0.624c0.475-0.92 1.62-1.529 2.653-1.477l0.702 0.088c0 0 0.001 0 0.002 0 0.11 0 0.166-0.092 0.196-0.124 0.045-0.047 0.066-0.14 0.063-0.219l-0.032-0.716c-0.048-1.036 0.61-2.184 1.532-2.66l0.624-0.326c0.090-0.046 0.123-0.112 0.136-0.156s0.015-0.118-0.040-0.204l-0.379-0.591c-0.56-0.874-0.56-2.192 0-3.065l0.38-0.592c0.054-0.085 0.052-0.157 0.040-0.202s-0.046-0.109-0.136-0.156l-0.623-0.322c-0.923-0.477-1.581-1.618-1.532-2.655l0.032-0.7c0.004-0.079-0.018-0.145-0.063-0.192-0.031-0.032-0.087-0.070-0.181-0.070l-0.718 0.033c-1.044 0.049-2.178-0.612-2.654-1.532l-0.323-0.624c-0.065-0.125-0.159-0.143-0.21-0.143-0.048 0-0.097 0.016-0.146 0.047l-0.593 0.38c-0.843 0.54-2.221 0.54-3.064 0l-0.592-0.38c-0.049-0.032-0.099-0.047-0.147-0.047-0.051 0-0.146 0.018-0.21 0.143l-0.322 0.623c-0.477 0.921-1.615 1.616-2.655 1.563l-0.701-0.003c-0.001 0-0.001 0-0.002 0-0.11 0-0.166 0.008-0.196 0.040-0.045 0.047-0.067 0.098-0.063 0.176l0.032 0.695c0.048 1.036-0.61 2.173-1.532 2.65l-0.624 0.32c-0.089 0.046-0.123 0.109-0.135 0.154s-0.015 0.116 0.040 0.202l0.379 0.59c0.56 0.874 0.56 2.191 0.001 3.064l-0.38 0.592c-0.054 0.084-0.051 0.156-0.040 0.201s0.046 0.108 0.135 0.154l0.625 0.324c0.921 0.476 1.58 1.617 1.532 2.654l-0.032 0.7c-0.004 0.079 0.018 0.146 0.063 0.193 0.030 0.032 0.087 0.070 0.181 0.070l0.718-0.034c1.043-0.044 2.177 0.611 2.654 1.531l0.323 0.626c0.064 0.123 0.159 0.141 0.21 0.141 0.049 0 0.099-0.016 0.148-0.047l0.59-0.38c0.421-0.269 0.966-0.418 1.532-0.418zM13.056 29.272c-0.185 0-0.368-0.057-0.523-0.169l-2.019-1.467-2.405 0.663c-0.294 0.083-0.61 0.006-0.836-0.2s-0.329-0.514-0.275-0.815l1.444-7.952c0.049-0.273 0.225-0.509 0.473-0.634s0.541-0.128 0.792-0.006c0.058 0.028 0.099 0.032 0.124 0.032l0.712-0.034c1.043-0.044 2.177 0.611 2.654 1.531l0.323 0.626c0.067 0.13 0.199 0.172 0.329 0.103 0.301-0.158 0.665-0.13 0.939 0.071s0.409 0.541 0.348 0.875l-1.207 6.646c-0.055 0.301-0.26 0.552-0.544 0.667-0.106 0.044-0.219 0.064-0.33 0.064zM10.69 25.776c0.186 0 0.369 0.058 0.522 0.17l1.221 0.886 0.752-4.146c-0.528-0.148-0.981-0.513-1.246-1.024l-0.323-0.625c-0.152-0.293-0.622-0.573-0.967-0.573l-0.614 0.028-1.038 5.716 1.454-0.401c0.079-0.021 0.158-0.032 0.237-0.032zM16.984 30.16c-0.112 0-0.224-0.021-0.331-0.064-0.284-0.114-0.489-0.365-0.544-0.667l-1.486-8.181c-0.085-0.468 0.213-0.919 0.676-1.025 0.764-0.175 1.635-0.045 2.232 0.338l0.592 0.38c0.048 0.031 0.098 0.047 0.147 0.047 0.051 0 0.145-0.018 0.21-0.142l0.323-0.624c0.475-0.92 1.62-1.529 2.653-1.477l0.702 0.088c0 0 0.001 0 0.001 0 0.124 0 0.207-0.106 0.242-0.196 0.144-0.372 0.517-0.627 0.913-0.592 0.396 0.038 0.72 0.32 0.791 0.713l1.602 8.812c0.029 0.088 0.045 0.119 0.045 0.217 0 0.491-0.398 0.824-0.889 0.824-0.004 0-0.007 0-0.009 0-0.079 0-0.158 0.050-0.236 0.028l-3.867-1.035-3.246 2.372c-0.154 0.112-0.337 0.185-0.522 0.185zM16.578 22.062l1.028 5.66 2.447-1.777c0.219-0.159 0.499-0.21 0.759-0.138l2.916 0.803-1.118-6.155c-0.14 0.030-0.287 0.118-0.435 0.118l-0.8 0.036c-0 0-0.001 0-0.001 0-0.369 0-0.838 0.206-0.99 0.5l-0.323 0.588c-0.352 0.681-1.038 1.086-1.789 1.086-0.389 0-0.771-0.122-1.106-0.337l-0.587-0.385z"></path>
</symbol>
<symbol id="icon-user156" viewBox="0 0 32 32">
<title>user156</title>
<path d="M16.037 20.068c-4.218 0-7.301-7.658-7.301-11.644 0-4.026 3.275-7.301 7.301-7.301s7.301 3.275 7.301 7.301c0 3.986-3.084 11.644-7.301 11.644zM16.037 2.9c-3.046 0-5.524 2.478-5.524 5.524 0 3.451 2.839 9.867 5.524 9.867s5.524-6.416 5.524-9.867c0-3.046-2.478-5.524-5.524-5.524zM12.306 9.078c-0.246 0-0.444-0.199-0.444-0.444 0-2.444 1.988-4.432 4.432-4.432 0.245 0 0.444 0.199 0.444 0.444s-0.199 0.444-0.444 0.444c-1.954 0-3.544 1.59-3.544 3.544 0 0.246-0.199 0.444-0.444 0.444zM12.462 10.784c-0.12 0-0.231-0.044-0.316-0.129s-0.129-0.2-0.129-0.316 0.045-0.231 0.129-0.316c0.164-0.164 0.462-0.164 0.627 0 0.084 0.084 0.133 0.2 0.133 0.316 0 0.12-0.048 0.232-0.133 0.316-0.080 0.085-0.195 0.129-0.311 0.129zM16 30.878c-2.511 0-10.704-0.256-10.704-3.556 0-4.727 3.119-8.99 7.585-10.367l0.544-0.168 0.38 0.424c1.361 1.52 2.989 1.592 4.449-0.029l0.383-0.425 0.545 0.172c4.428 1.397 7.521 5.671 7.521 10.393 0 3.299-8.193 3.555-10.704 3.555zM12.901 18.827c-3.456 1.304-5.827 4.722-5.827 8.496 0 0.49 2.744 1.778 8.926 1.778s8.926-1.288 8.926-1.778c0-3.772-2.348-7.2-5.772-8.52-0.952 0.889-2.020 1.355-3.117 1.355-1.124 0-2.197-0.458-3.136-1.331z"></path>
</symbol>
<symbol id="icon-video172" viewBox="0 0 32 32">
<title>video172</title>
<path d="M7.493 12.307c-3.043 0-5.518-2.475-5.518-5.518s2.476-5.519 5.518-5.519c3.044 0 5.519 2.476 5.519 5.519s-2.476 5.518-5.519 5.518zM7.493 3.048c-2.063 0-3.74 1.678-3.74 3.741s1.678 3.74 3.74 3.74c2.063 0 3.741-1.678 3.741-3.74s-1.678-3.741-3.741-3.741zM5.046 7.233c-0.246 0-0.444-0.199-0.444-0.444l-0.002-0.089c-0.003-0.093-0.003-0.16 0.025-0.306 0.046-0.241 0.281-0.397 0.52-0.353 0.241 0.046 0.399 0.28 0.353 0.52-0.011 0.058-0.011 0.058-0.009 0.109l0.002 0.119c-0 0.245-0.2 0.444-0.445 0.444zM5.459 5.872c-0.085 0-0.171-0.024-0.247-0.075-0.204-0.137-0.258-0.413-0.122-0.617 0.539-0.804 1.437-1.283 2.403-1.283 0.246 0 0.444 0.199 0.444 0.444s-0.199 0.444-0.444 0.444c-0.669 0-1.292 0.332-1.664 0.889-0.086 0.128-0.227 0.197-0.37 0.197zM19.938 12.307c-3.043 0-5.518-2.475-5.518-5.518s2.476-5.519 5.518-5.519c3.044 0 5.519 2.476 5.519 5.519s-2.476 5.518-5.519 5.518zM19.938 3.048c-2.063 0-3.74 1.678-3.74 3.741s1.678 3.74 3.74 3.74c2.063 0 3.741-1.678 3.741-3.74s-1.678-3.741-3.741-3.741zM17.904 5.872c-0.085 0-0.171-0.024-0.247-0.075-0.204-0.137-0.258-0.413-0.122-0.617 0.539-0.804 1.437-1.283 2.403-1.283 0.246 0 0.444 0.199 0.444 0.444s-0.199 0.444-0.444 0.444c-0.669 0-1.292 0.332-1.664 0.889-0.086 0.128-0.227 0.197-0.37 0.197zM20.528 30.73h-16.505c-1.728 0-3.134-1.123-3.134-2.788v-11.616c0-1.731 1.464-3.373 3.134-3.373h16.505c1.699 0 3.081 1.497 3.081 3.227 0 0.022-0.001 0.088-0.002 0.109l-0.022 0.333c1.307-0.68 3.306-1.731 4.703-2.478 0.471-0.228 0.859-0.324 1.218-0.324 0.443 0 0.805 0.16 1.097 0.457 0.555 0.563 0.509 1.396 0.509 1.75v12.006c0 0.535-0.076 0.93-0.298 1.235-0.188 0.26-0.576 0.574-1.218 0.574-0 0 0.028 0 0.028 0-0.36 0-0.732-0.099-1.2-0.243-0.053-0.016-0.097-0.039-0.146-0.065-1.701-0.896-3.536-1.847-4.717-2.439l0.046 0.74c0.001 0.017 0.003-0.056 0.003-0.038-0.001 1.696-1.354 2.935-3.081 2.935zM4.022 14.73c-0.694 0-1.356 0.842-1.356 1.596v11.616c0 0.69 0.601 1.010 1.356 1.010h16.505c0.723 0 1.29-0.445 1.303-1.134l-0.131-2.149c-0.015-0.245 0.072-0.462 0.24-0.64s0.402-0.268 0.647-0.268c0.264 0 0.472 0.005 6.451 3.153 0.092 0.028 0.225 0.069 0.349 0.099l0.001-12.016c0.003-0.175-0.004-0.292-0.015-0.371-0.066 0.020-0.158 0.053-0.28 0.112-6.138 3.283-6.215 3.284-6.505 3.284-0.247 0-0.482-0.102-0.651-0.283s-0.253-0.424-0.236-0.669l0.13-1.92c-0.015-0.724-0.605-1.421-1.303-1.421h-16.505zM4 20.244c-0.246 0-0.444-0.199-0.444-0.444v-2.259c0-0.822 0.719-1.922 1.611-1.922h3.775c0.246 0 0.444 0.199 0.444 0.444s-0.199 0.444-0.444 0.444h-3.775c-0.325 0-0.722 0.619-0.722 1.033v2.259c0 0.246-0.199 0.445-0.444 0.445zM11.164 16.508h-0.444c-0.246 0-0.444-0.199-0.444-0.444s0.199-0.444 0.444-0.444h0.444c0.246 0 0.444 0.199 0.444 0.444s-0.199 0.444-0.444 0.444z"></path>
</symbol>
</defs>
</svg>
